solid
 facet normal 0.001364 -0.000004 0.000001
  outer loop
   vertex 20.31994046 -2.107002032 18.89361738 
   vertex 20.31990092 -2.121532255 18.89361174 
   vertex 20.31998188 -2.107002032 18.80211751 
  endloop
 endfacet
 facet normal 0.001366 -0.000000 0.000001
  outer loop
   vertex 20.31998188 -2.107002032 18.80211751 
   vertex 20.31990092 -2.121532255 18.89361174 
   vertex 20.31998188 -2.121550613 18.80211563 
  endloop
 endfacet
 facet normal 0.001857 0.000008 0.000002
  outer loop
   vertex 20.31990092 -2.121532255 18.89361174 
   vertex 20.31998 -2.141308129 18.89361174 
   vertex 20.31998188 -2.121550613 18.80211563 
  endloop
 endfacet
 facet normal 0.001856 -0.000008 -0.000002
  outer loop
   vertex 20.31998188 -2.121550613 18.80211563 
   vertex 20.31998 -2.141308129 18.89361174 
   vertex 20.3199028 -2.14132178 18.80211186 
  endloop
 endfacet
 facet normal 0.003053 0.000000 -0.000003
  outer loop
   vertex 20.3199028 -2.14132178 18.80211186 
   vertex 20.31998 -2.141308129 18.89361174 
   vertex 20.3199028 -2.173844257 18.80211186 
  endloop
 endfacet
 facet normal 0.003055 0.000000 -0.000003
  outer loop
   vertex 20.3199028 -2.173844257 18.80211186 
   vertex 20.31998 -2.141308129 18.89361174 
   vertex 20.31998 -2.173836254 18.8936381 
  endloop
 endfacet
 facet normal 0.001763 0.000010 0.000000
  outer loop
   vertex 20.31998 -2.318486275 18.89361174 
   vertex 20.31998188 -2.318486275 18.77542299 
   vertex 20.31990092 -2.30394852 18.89361174 
  endloop
 endfacet
 facet normal 0.001582 -0.000001 0.000001
  outer loop
   vertex 20.31990092 -2.30394852 18.89361174 
   vertex 20.31998188 -2.318486275 18.77542299 
   vertex 20.31998188 -2.303933928 18.78769603 
  endloop
 endfacet
 facet normal 0.002149 0.000000 0.000002
  outer loop
   vertex 20.31990092 -2.30394852 18.89361174 
   vertex 20.31998188 -2.303933928 18.78769603 
   vertex 20.31990092 -2.284172175 18.8936381 
  endloop
 endfacet
 facet normal 0.001857 0.000007 0.000000
  outer loop
   vertex 20.31990092 -2.284172175 18.8936381 
   vertex 20.31998188 -2.303933928 18.78769603 
   vertex 20.3199028 -2.284166762 18.80211186 
  endloop
 endfacet
 facet normal 0.003654 -0.000007 -0.000003
  outer loop
   vertex 20.31998 -2.173836254 18.8936381 
   vertex 20.3199028 -2.212740034 18.8936381 
   vertex 20.3199028 -2.173844257 18.80211186 
  endloop
 endfacet
 facet normal 0.003653 0.000000 -0.000000
  outer loop
   vertex 20.3199028 -2.173844257 18.80211186 
   vertex 20.3199028 -2.212740034 18.8936381 
   vertex 20.31990092 -2.212741917 18.80211563 
  endloop
 endfacet
 facet normal 0.003055 0.000000 0.000000
  outer loop
   vertex 20.31990092 -2.284172175 18.8936381 
   vertex 20.3199028 -2.284166762 18.80211186 
   vertex 20.3199028 -2.251644991 18.8936381 
  endloop
 endfacet
 facet normal 0.003054 0.000000 0.000000
  outer loop
   vertex 20.3199028 -2.251644991 18.8936381 
   vertex 20.3199028 -2.284166762 18.80211186 
   vertex 20.3199028 -2.251643344 18.80211186 
  endloop
 endfacet
 facet normal 0.003653 0.000000 0.000000
  outer loop
   vertex 20.3199028 -2.251643344 18.80211186 
   vertex 20.31990092 -2.212741917 18.80211563 
   vertex 20.3199028 -2.251644991 18.8936381 
  endloop
 endfacet
 facet normal 0.003654 0.000000 -0.000000
  outer loop
   vertex 20.3199028 -2.251644991 18.8936381 
   vertex 20.31990092 -2.212741917 18.80211563 
   vertex 20.3199028 -2.212740034 18.8936381 
  endloop
 endfacet
 facet normal 0.000000 0.001911 0.000000
  outer loop
   vertex 20.31998 -2.318486275 18.89361174 
   vertex 20.33573837 -2.318486275 18.89361174 
   vertex 20.31998188 -2.318486275 18.77542299 
  endloop
 endfacet
 facet normal 0.000000 0.001915 0.000000
  outer loop
   vertex 20.31998188 -2.318486275 18.77542299 
   vertex 20.33573837 -2.318486275 18.89361174 
   vertex 20.33576662 -2.318486275 18.77542299 
  endloop
 endfacet
 facet normal 0.000000 0.005139 -0.000000
  outer loop
   vertex 20.33573837 -2.318486275 18.89361174 
   vertex 20.37811972 -2.318486275 18.89361174 
   vertex 20.33576662 -2.318486275 18.77542299 
  endloop
 endfacet
 facet normal 0.000000 0.005139 0.000000
  outer loop
   vertex 20.33576662 -2.318486275 18.77542299 
   vertex 20.37811972 -2.318486275 18.89361174 
   vertex 20.37814043 -2.318486275 18.77542487 
  endloop
 endfacet
 facet normal 0.000000 0.010201 0.000000
  outer loop
   vertex 20.37814043 -2.318486275 18.77542487 
   vertex 20.37811972 -2.318486275 18.89361174 
   vertex 20.46225727 -2.318486275 18.77542299 
  endloop
 endfacet
 facet normal 0.000000 0.010201 -0.000000
  outer loop
   vertex 20.46225727 -2.318486275 18.77542299 
   vertex 20.37811972 -2.318486275 18.89361174 
   vertex 20.46224409 -2.318486275 18.89361174 
  endloop
 endfacet
 facet normal 0.000000 0.016947 0.000000
  outer loop
   vertex 20.60199634 -2.318486275 18.77542299 
   vertex 20.46225727 -2.318486275 18.77542299 
   vertex 20.60199069 -2.318486275 18.89361174 
  endloop
 endfacet
 facet normal 0.000000 0.016948 0.000000
  outer loop
   vertex 20.60199069 -2.318486275 18.89361174 
   vertex 20.46225727 -2.318486275 18.77542299 
   vertex 20.46224409 -2.318486275 18.89361174 
  endloop
 endfacet
 facet normal 0.000000 0.020319 0.000000
  outer loop
   vertex 20.60199634 -2.318486275 18.77542299 
   vertex 20.60199069 -2.318486275 18.89361174 
   vertex 20.76954651 -2.318486275 18.77542487 
  endloop
 endfacet
 facet normal 0.000000 0.020319 0.000000
  outer loop
   vertex 20.76954651 -2.318486275 18.77542487 
   vertex 20.60199069 -2.318486275 18.89361174 
   vertex 20.76954651 -2.318486275 18.89361174 
  endloop
 endfacet
 facet normal 0.000000 0.020319 0.000000
  outer loop
   vertex 20.76954651 -2.318486275 18.89361174 
   vertex 20.93710233 -2.318486275 18.89361174 
   vertex 20.76954651 -2.318486275 18.77542487 
  endloop
 endfacet
 facet normal 0.000000 0.020319 0.000000
  outer loop
   vertex 20.76954651 -2.318486275 18.77542487 
   vertex 20.93710233 -2.318486275 18.89361174 
   vertex 20.93709668 -2.318486275 18.77542299 
  endloop
 endfacet
 facet normal 0.000000 0.016947 0.000000
  outer loop
   vertex 20.93709668 -2.318486275 18.77542299 
   vertex 20.93710233 -2.318486275 18.89361174 
   vertex 21.07683574 -2.318486275 18.77542299 
  endloop
 endfacet
 facet normal 0.000000 0.016947 -0.000000
  outer loop
   vertex 21.07683574 -2.318486275 18.77542299 
   vertex 20.93710233 -2.318486275 18.89361174 
   vertex 21.07684892 -2.318486275 18.89361174 
  endloop
 endfacet
 facet normal 0.000000 0.010202 -0.000000
  outer loop
   vertex 21.07684892 -2.318486275 18.89361174 
   vertex 21.1609733 -2.318486275 18.89361174 
   vertex 21.07683574 -2.318486275 18.77542299 
  endloop
 endfacet
 facet normal 0.000000 0.010200 0.000000
  outer loop
   vertex 21.07683574 -2.318486275 18.77542299 
   vertex 21.1609733 -2.318486275 18.89361174 
   vertex 21.16095258 -2.318486275 18.77542487 
  endloop
 endfacet
 facet normal -0.001364 -0.000000 0.000000
  outer loop
   vertex 21.21915256 -2.107002032 18.89360985 
   vertex 21.21914879 -2.107002032 18.80210245 
   vertex 21.21915632 -2.121532255 18.89361174 
  endloop
 endfacet
 facet normal -0.001366 -0.000001 0.000000
  outer loop
   vertex 21.21915632 -2.121532255 18.89361174 
   vertex 21.21914879 -2.107002032 18.80210245 
   vertex 21.21915444 -2.121550613 18.80211563 
  endloop
 endfacet
 facet normal 0.000000 0.001846 0.000000
  outer loop
   vertex 21.21858203 -2.318486275 18.89361174 
   vertex 21.21853495 -2.318486275 18.77541357 
   vertex 21.20335464 -2.318486275 18.89361174 
  endloop
 endfacet
 facet normal 0.000000 0.001844 -0.000000
  outer loop
   vertex 21.20335464 -2.318486275 18.89361174 
   vertex 21.21853495 -2.318486275 18.77541357 
   vertex 21.2033264 -2.318486275 18.77542299 
  endloop
 endfacet
 facet normal 0.000000 0.005140 0.000000
  outer loop
   vertex 21.20335464 -2.318486275 18.89361174 
   vertex 21.2033264 -2.318486275 18.77542299 
   vertex 21.1609733 -2.318486275 18.89361174 
  endloop
 endfacet
 facet normal 0.000000 0.005139 -0.000000
  outer loop
   vertex 21.1609733 -2.318486275 18.89361174 
   vertex 21.2033264 -2.318486275 18.77542299 
   vertex 21.16095258 -2.318486275 18.77542487 
  endloop
 endfacet
 facet normal -0.001857 0.000000 0.000000
  outer loop
   vertex 21.21915632 -2.121532255 18.89361174 
   vertex 21.21915444 -2.121550613 18.80211563 
   vertex 21.21915632 -2.141308129 18.89361174 
  endloop
 endfacet
 facet normal -0.001856 0.000001 0.000000
  outer loop
   vertex 21.21915632 -2.141308129 18.89361174 
   vertex 21.21915444 -2.121550613 18.80211563 
   vertex 21.21914691 -2.14132178 18.80211186 
  endloop
 endfacet
 facet normal -0.003055 0.000001 -0.000000
  outer loop
   vertex 21.21914503 -2.173836254 18.8936381 
   vertex 21.21915632 -2.141308129 18.89361174 
   vertex 21.21915632 -2.173844257 18.80211186 
  endloop
 endfacet
 facet normal -0.003053 -0.000001 0.000000
  outer loop
   vertex 21.21915632 -2.173844257 18.80211186 
   vertex 21.21915632 -2.141308129 18.89361174 
   vertex 21.21914691 -2.14132178 18.80211186 
  endloop
 endfacet
 facet normal -0.001763 0.000105 0.000001
  outer loop
   vertex 21.21858203 -2.318486275 18.89361174 
   vertex 21.2194463 -2.30394852 18.89361174 
   vertex 21.21853495 -2.318486275 18.77541357 
  endloop
 endfacet
 facet normal -0.001582 0.000091 0.000001
  outer loop
   vertex 21.21853495 -2.318486275 18.77541357 
   vertex 21.2194463 -2.30394852 18.89361174 
   vertex 21.21938228 -2.303933928 18.78769603 
  endloop
 endfacet
 facet normal -0.003653 -0.000001 -0.000000
  outer loop
   vertex 21.21915444 -2.212740034 18.8936381 
   vertex 21.21914503 -2.173836254 18.8936381 
   vertex 21.21915821 -2.212741917 18.80211563 
  endloop
 endfacet
 facet normal -0.003653 -0.000001 -0.000000
  outer loop
   vertex 21.21915821 -2.212741917 18.80211563 
   vertex 21.21914503 -2.173836254 18.8936381 
   vertex 21.21915632 -2.173844257 18.80211186 
  endloop
 endfacet
 facet normal -0.002149 0.000020 0.000001
  outer loop
   vertex 21.2194463 -2.30394852 18.89361174 
   vertex 21.21962518 -2.284172175 18.8936381 
   vertex 21.21938228 -2.303933928 18.78769603 
  endloop
 endfacet
 facet normal -0.001857 -0.000029 0.000010
  outer loop
   vertex 21.21938228 -2.303933928 18.78769603 
   vertex 21.21962518 -2.284172175 18.8936381 
   vertex 21.21914691 -2.284166762 18.80211186 
  endloop
 endfacet
 facet normal -0.003654 -0.000054 -0.000000
  outer loop
   vertex 21.21915444 -2.212740034 18.8936381 
   vertex 21.21915821 -2.212741917 18.80211563 
   vertex 21.21973251 -2.251644991 18.8936381 
  endloop
 endfacet
 facet normal -0.003653 0.000000 0.000023
  outer loop
   vertex 21.21973251 -2.251644991 18.8936381 
   vertex 21.21915821 -2.212741917 18.80211563 
   vertex 21.21915632 -2.251643344 18.80211186 
  endloop
 endfacet
 facet normal -0.003055 0.000010 0.000016
  outer loop
   vertex 21.21962518 -2.284172175 18.8936381 
   vertex 21.21973251 -2.251644991 18.8936381 
   vertex 21.21914691 -2.284166762 18.80211186 
  endloop
 endfacet
 facet normal -0.003054 0.000001 0.000019
  outer loop
   vertex 21.21914691 -2.284166762 18.80211186 
   vertex 21.21973251 -2.251644991 18.8936381 
   vertex 21.21915632 -2.251643344 18.80211186 
  endloop
 endfacet
 facet normal 0.000000 0.000001 -0.002708
  outer loop
   vertex 20.31994046 -2.107002032 18.89361738 
   vertex 20.50146962 -2.149675705 18.8936155 
   vertex 20.31990092 -2.121532255 18.89361174 
  endloop
 endfacet
 facet normal 0.000000 0.000000 -0.001615
  outer loop
   vertex 20.31990092 -2.121532255 18.89361174 
   vertex 20.50146962 -2.149675705 18.8936155 
   vertex 20.50146962 -2.158341963 18.8936155 
  endloop
 endfacet
 facet normal 0.000000 0.000000 -0.003681
  outer loop
   vertex 20.31990092 -2.121532255 18.89361174 
   vertex 20.50146962 -2.158341963 18.8936155 
   vertex 20.31998 -2.141308129 18.89361174 
  endloop
 endfacet
 facet normal 0.000000 0.000000 -0.002196
  outer loop
   vertex 20.31998 -2.141308129 18.89361174 
   vertex 20.50146962 -2.158341963 18.8936155 
   vertex 20.5015167 -2.170136972 18.8936155 
  endloop
 endfacet
 facet normal -0.000001 0.000005 -0.003684
  outer loop
   vertex 20.31990092 -2.30394852 18.89361174 
   vertex 20.31990092 -2.284172175 18.8936381 
   vertex 20.50146962 -2.267141636 18.8936155 
  endloop
 endfacet
 facet normal -0.000001 0.000003 -0.002197
  outer loop
   vertex 20.50146962 -2.267141636 18.8936155 
   vertex 20.31990092 -2.284172175 18.8936381 
   vertex 20.50146962 -2.255346392 18.89363245 
  endloop
 endfacet
 facet normal -0.000001 -0.000005 -0.006059
  outer loop
   vertex 20.31998 -2.141308129 18.89361174 
   vertex 20.5015167 -2.170136972 18.8936155 
   vertex 20.31998 -2.173836254 18.8936381 
  endloop
 endfacet
 facet normal -0.000000 -0.000003 -0.003614
  outer loop
   vertex 20.31998 -2.173836254 18.8936381 
   vertex 20.5015167 -2.170136972 18.8936155 
   vertex 20.5015167 -2.189539317 18.89363245 
  endloop
 endfacet
 facet normal 0.000000 0.000000 -0.002712
  outer loop
   vertex 20.31998 -2.318486275 18.89361174 
   vertex 20.31990092 -2.30394852 18.89361174 
   vertex 20.5015167 -2.275813779 18.8936155 
  endloop
 endfacet
 facet normal 0.000000 0.000000 -0.001617
  outer loop
   vertex 20.5015167 -2.275813779 18.8936155 
   vertex 20.31990092 -2.30394852 18.89361174 
   vertex 20.50146962 -2.267141636 18.8936155 
  endloop
 endfacet
 facet normal 0.000000 0.000000 -0.000692
  outer loop
   vertex 20.31994046 -2.107002032 18.89361738 
   vertex 20.33575344 -2.107002032 18.89361738 
   vertex 20.50146962 -2.149675705 18.8936155 
  endloop
 endfacet
 facet normal 0.000000 0.000000 -0.000414
  outer loop
   vertex 20.50146962 -2.149675705 18.8936155 
   vertex 20.33575344 -2.107002032 18.89361738 
   vertex 20.51091824 -2.149675705 18.8936155 
  endloop
 endfacet
 facet normal -0.000000 0.000000 -0.007248
  outer loop
   vertex 20.31998 -2.173836254 18.8936381 
   vertex 20.5015167 -2.189539317 18.89363245 
   vertex 20.3199028 -2.212740034 18.8936381 
  endloop
 endfacet
 facet normal -0.000000 0.000000 -0.004323
  outer loop
   vertex 20.3199028 -2.212740034 18.8936381 
   vertex 20.5015167 -2.189539317 18.89363245 
   vertex 20.5014715 -2.212741682 18.89363245 
  endloop
 endfacet
 facet normal -0.000000 0.000000 -0.006060
  outer loop
   vertex 20.31990092 -2.284172175 18.8936381 
   vertex 20.3199028 -2.251644991 18.8936381 
   vertex 20.50146962 -2.255346392 18.89363245 
  endloop
 endfacet
 facet normal -0.000000 0.000000 -0.003614
  outer loop
   vertex 20.50146962 -2.255346392 18.89363245 
   vertex 20.3199028 -2.251644991 18.8936381 
   vertex 20.5014715 -2.235945459 18.89363245 
  endloop
 endfacet
 facet normal -0.000000 0.000000 -0.007248
  outer loop
   vertex 20.3199028 -2.251644991 18.8936381 
   vertex 20.3199028 -2.212740034 18.8936381 
   vertex 20.5014715 -2.235945459 18.89363245 
  endloop
 endfacet
 facet normal -0.000000 0.000000 -0.004323
  outer loop
   vertex 20.5014715 -2.235945459 18.89363245 
   vertex 20.3199028 -2.212740034 18.8936381 
   vertex 20.5014715 -2.212741682 18.89363245 
  endloop
 endfacet
 facet normal 0.000000 0.000000 -0.001856
  outer loop
   vertex 20.33575344 -2.107002032 18.89361738 
   vertex 20.3781329 -2.107002032 18.89361927 
   vertex 20.51091824 -2.149675705 18.8936155 
  endloop
 endfacet
 facet normal 0.000000 0.000000 -0.001107
  outer loop
   vertex 20.51091824 -2.149675705 18.8936155 
   vertex 20.3781329 -2.107002032 18.89361927 
   vertex 20.53619679 -2.149675705 18.8936155 
  endloop
 endfacet
 facet normal 0.000000 0.000000 -0.003683
  outer loop
   vertex 20.3781329 -2.107002032 18.89361927 
   vertex 20.46225351 -2.107002032 18.89361738 
   vertex 20.53619679 -2.149675705 18.8936155 
  endloop
 endfacet
 facet normal 0.000000 0.000000 -0.002197
  outer loop
   vertex 20.53619679 -2.149675705 18.8936155 
   vertex 20.46225351 -2.107002032 18.89361738 
   vertex 20.58637165 -2.149675705 18.8936155 
  endloop
 endfacet
 facet normal 0.000000 0.000000 -0.000690
  outer loop
   vertex 20.31998 -2.318486275 18.89361174 
   vertex 20.5015167 -2.275813779 18.8936155 
   vertex 20.33573837 -2.318486275 18.89361174 
  endloop
 endfacet
 facet normal 0.000000 0.000000 -0.000412
  outer loop
   vertex 20.33573837 -2.318486275 18.89361174 
   vertex 20.5015167 -2.275813779 18.8936155 
   vertex 20.51091636 -2.275813779 18.8936155 
  endloop
 endfacet
 facet normal 0.000001 0.000002 -0.006119
  outer loop
   vertex 20.46225351 -2.107002032 18.89361738 
   vertex 20.60199445 -2.107002032 18.89363245 
   vertex 20.58637165 -2.149675705 18.8936155 
  endloop
 endfacet
 facet normal 0.000001 0.000001 -0.003650
  outer loop
   vertex 20.58637165 -2.149675705 18.8936155 
   vertex 20.60199445 -2.107002032 18.89363245 
   vertex 20.66971837 -2.149675705 18.89363245 
  endloop
 endfacet
 facet normal 0.000000 0.000000 -0.007337
  outer loop
   vertex 20.60199445 -2.107002032 18.89363245 
   vertex 20.76954651 -2.107002032 18.89363245 
   vertex 20.66971837 -2.149675705 18.89363245 
  endloop
 endfacet
 facet normal 0.000000 0.000000 -0.004376
  outer loop
   vertex 20.66971837 -2.149675705 18.89363245 
   vertex 20.76954651 -2.107002032 18.89363245 
   vertex 20.76965572 -2.149675705 18.89363245 
  endloop
 endfacet
 facet normal 0.000000 0.000000 -0.001856
  outer loop
   vertex 20.33573837 -2.318486275 18.89361174 
   vertex 20.51091636 -2.275813779 18.8936155 
   vertex 20.37811972 -2.318486275 18.89361174 
  endloop
 endfacet
 facet normal 0.000000 0.000000 -0.001107
  outer loop
   vertex 20.37811972 -2.318486275 18.89361174 
   vertex 20.51091636 -2.275813779 18.8936155 
   vertex 20.53619491 -2.275813779 18.8936155 
  endloop
 endfacet
 facet normal 0.000000 0.000000 -0.007337
  outer loop
   vertex 20.93709856 -2.107002032 18.89363245 
   vertex 20.86959119 -2.149675705 18.89363245 
   vertex 20.76954651 -2.107002032 18.89363245 
  endloop
 endfacet
 facet normal 0.000000 0.000000 -0.004376
  outer loop
   vertex 20.76954651 -2.107002032 18.89363245 
   vertex 20.86959119 -2.149675705 18.89363245 
   vertex 20.76965572 -2.149675705 18.89363245 
  endloop
 endfacet
 facet normal -0.000001 0.000002 -0.006119
  outer loop
   vertex 21.07684139 -2.107002032 18.89361738 
   vertex 20.95294167 -2.149675705 18.8936155 
   vertex 20.93709856 -2.107002032 18.89363245 
  endloop
 endfacet
 facet normal -0.000001 0.000001 -0.003650
  outer loop
   vertex 20.93709856 -2.107002032 18.89363245 
   vertex 20.95294167 -2.149675705 18.8936155 
   vertex 20.86959119 -2.149675705 18.89363245 
  endloop
 endfacet
 facet normal 0.000000 0.000000 -0.003683
  outer loop
   vertex 20.37811972 -2.318486275 18.89361174 
   vertex 20.53619491 -2.275813779 18.8936155 
   vertex 20.46224409 -2.318486275 18.89361174 
  endloop
 endfacet
 facet normal 0.000000 0.000000 -0.002197
  outer loop
   vertex 20.46224409 -2.318486275 18.89361174 
   vertex 20.53619491 -2.275813779 18.8936155 
   vertex 20.58636977 -2.275813779 18.8936155 
  endloop
 endfacet
 facet normal 0.000000 0.000000 -0.003683
  outer loop
   vertex 21.160962 -2.107002032 18.89361927 
   vertex 21.00311465 -2.149675705 18.8936155 
   vertex 21.07684139 -2.107002032 18.89361738 
  endloop
 endfacet
 facet normal 0.000000 0.000000 -0.002197
  outer loop
   vertex 21.07684139 -2.107002032 18.89361738 
   vertex 21.00311465 -2.149675705 18.8936155 
   vertex 20.95294167 -2.149675705 18.8936155 
  endloop
 endfacet
 facet normal 0.000000 0.000000 -0.001856
  outer loop
   vertex 21.20333958 -2.107002032 18.89361738 
   vertex 21.0283932 -2.149675705 18.8936155 
   vertex 21.160962 -2.107002032 18.89361927 
  endloop
 endfacet
 facet normal 0.000000 0.000000 -0.001107
  outer loop
   vertex 21.160962 -2.107002032 18.89361927 
   vertex 21.0283932 -2.149675705 18.8936155 
   vertex 21.00311465 -2.149675705 18.8936155 
  endloop
 endfacet
 facet normal -0.000000 0.000001 -0.000692
  outer loop
   vertex 21.21915256 -2.107002032 18.89360985 
   vertex 21.03782111 -2.149675705 18.8936155 
   vertex 21.20333958 -2.107002032 18.89361738 
  endloop
 endfacet
 facet normal 0.000000 0.000000 -0.000413
  outer loop
   vertex 21.20333958 -2.107002032 18.89361738 
   vertex 21.03782111 -2.149675705 18.8936155 
   vertex 21.0283932 -2.149675705 18.8936155 
  endloop
 endfacet
 facet normal 0.000000 0.000001 -0.006119
  outer loop
   vertex 20.46224409 -2.318486275 18.89361174 
   vertex 20.58636977 -2.275813779 18.8936155 
   vertex 20.60199069 -2.318486275 18.89361174 
  endloop
 endfacet
 facet normal 0.000000 0.000000 -0.003650
  outer loop
   vertex 20.60199069 -2.318486275 18.89361174 
   vertex 20.58636977 -2.275813779 18.8936155 
   vertex 20.66971837 -2.275813779 18.8936155 
  endloop
 endfacet
 facet normal 0.000000 0.000001 -0.007337
  outer loop
   vertex 20.60199069 -2.318486275 18.89361174 
   vertex 20.66971837 -2.275813779 18.8936155 
   vertex 20.76954651 -2.318486275 18.89361174 
  endloop
 endfacet
 facet normal 0.000000 0.000000 -0.004376
  outer loop
   vertex 20.76954651 -2.318486275 18.89361174 
   vertex 20.66971837 -2.275813779 18.8936155 
   vertex 20.76965572 -2.275813779 18.8936155 
  endloop
 endfacet
 facet normal 0.000000 0.000001 -0.007337
  outer loop
   vertex 20.93710233 -2.318486275 18.89361174 
   vertex 20.76954651 -2.318486275 18.89361174 
   vertex 20.86959119 -2.275813779 18.8936155 
  endloop
 endfacet
 facet normal 0.000000 0.000000 -0.004376
  outer loop
   vertex 20.86959119 -2.275813779 18.8936155 
   vertex 20.76954651 -2.318486275 18.89361174 
   vertex 20.76965572 -2.275813779 18.8936155 
  endloop
 endfacet
 facet normal 0.000000 0.000001 -0.006119
  outer loop
   vertex 21.07684892 -2.318486275 18.89361174 
   vertex 20.93710233 -2.318486275 18.89361174 
   vertex 20.95294167 -2.275813779 18.8936155 
  endloop
 endfacet
 facet normal 0.000000 0.000000 -0.003650
  outer loop
   vertex 20.95294167 -2.275813779 18.8936155 
   vertex 20.93710233 -2.318486275 18.89361174 
   vertex 20.86959119 -2.275813779 18.8936155 
  endloop
 endfacet
 facet normal 0.000000 0.000000 -0.000667
  outer loop
   vertex 21.21858203 -2.318486275 18.89361174 
   vertex 21.20335464 -2.318486275 18.89361174 
   vertex 21.03747653 -2.275813779 18.8936155 
  endloop
 endfacet
 facet normal 0.000000 0.000000 -0.000398
  outer loop
   vertex 21.03747653 -2.275813779 18.8936155 
   vertex 21.20335464 -2.318486275 18.89361174 
   vertex 21.02839508 -2.275813779 18.8936155 
  endloop
 endfacet
 facet normal 0.000000 0.000000 -0.001856
  outer loop
   vertex 21.20335464 -2.318486275 18.89361174 
   vertex 21.1609733 -2.318486275 18.89361174 
   vertex 21.02839508 -2.275813779 18.8936155 
  endloop
 endfacet
 facet normal 0.000000 0.000000 -0.001107
  outer loop
   vertex 21.02839508 -2.275813779 18.8936155 
   vertex 21.1609733 -2.318486275 18.89361174 
   vertex 21.00311653 -2.275813779 18.8936155 
  endloop
 endfacet
 facet normal 0.000000 0.000000 -0.003683
  outer loop
   vertex 21.1609733 -2.318486275 18.89361174 
   vertex 21.07684892 -2.318486275 18.89361174 
   vertex 21.00311653 -2.275813779 18.8936155 
  endloop
 endfacet
 facet normal 0.000000 0.000000 -0.002197
  outer loop
   vertex 21.00311653 -2.275813779 18.8936155 
   vertex 21.07684892 -2.318486275 18.89361174 
   vertex 20.95294167 -2.275813779 18.8936155 
  endloop
 endfacet
 facet normal 0.000000 -0.000000 -0.002704
  outer loop
   vertex 21.21915256 -2.107002032 18.89360985 
   vertex 21.21915632 -2.121532255 18.89361174 
   vertex 21.03782111 -2.149675705 18.8936155 
  endloop
 endfacet
 facet normal -0.000000 0.000000 -0.001612
  outer loop
   vertex 21.03782111 -2.149675705 18.8936155 
   vertex 21.21915632 -2.121532255 18.89361174 
   vertex 21.03781922 -2.158341963 18.8936155 
  endloop
 endfacet
 facet normal -0.000000 0.000000 -0.003680
  outer loop
   vertex 21.21915632 -2.121532255 18.89361174 
   vertex 21.21915632 -2.141308129 18.89361174 
   vertex 21.03781922 -2.158341963 18.8936155 
  endloop
 endfacet
 facet normal -0.000000 0.000000 -0.002195
  outer loop
   vertex 21.03781922 -2.158341963 18.8936155 
   vertex 21.21915632 -2.141308129 18.89361174 
   vertex 21.03781922 -2.170136972 18.8936155 
  endloop
 endfacet
 facet normal 0.000001 -0.000005 -0.006052
  outer loop
   vertex 21.21915632 -2.141308129 18.89361174 
   vertex 21.21914503 -2.173836254 18.8936381 
   vertex 21.03781922 -2.170136972 18.8936155 
  endloop
 endfacet
 facet normal 0.000000 -0.000003 -0.003610
  outer loop
   vertex 21.03781922 -2.170136972 18.8936155 
   vertex 21.21914503 -2.173836254 18.8936381 
   vertex 21.03781357 -2.189539317 18.89363245 
  endloop
 endfacet
 facet normal -0.000000 0.000000 -0.002739
  outer loop
   vertex 21.21858203 -2.318486275 18.89361174 
   vertex 21.03747653 -2.275813779 18.8936155 
   vertex 21.2194463 -2.30394852 18.89361174 
  endloop
 endfacet
 facet normal 0.000000 0.000000 -0.001634
  outer loop
   vertex 21.2194463 -2.30394852 18.89361174 
   vertex 21.03747653 -2.275813779 18.8936155 
   vertex 21.03799245 -2.267141636 18.8936155 
  endloop
 endfacet
 facet normal 0.000000 0.000000 -0.007239
  outer loop
   vertex 21.21914503 -2.173836254 18.8936381 
   vertex 21.21915444 -2.212740034 18.8936381 
   vertex 21.03781357 -2.189539317 18.89363245 
  endloop
 endfacet
 facet normal 0.000000 0.000000 -0.004317
  outer loop
   vertex 21.03781357 -2.189539317 18.89363245 
   vertex 21.21915444 -2.212740034 18.8936381 
   vertex 21.03781922 -2.212741682 18.89363245 
  endloop
 endfacet
 facet normal 0.000001 0.000005 -0.003689
  outer loop
   vertex 21.2194463 -2.30394852 18.89361174 
   vertex 21.03799245 -2.267141636 18.8936155 
   vertex 21.21962518 -2.284172175 18.8936381 
  endloop
 endfacet
 facet normal 0.000001 0.000003 -0.002200
  outer loop
   vertex 21.21962518 -2.284172175 18.8936381 
   vertex 21.03799245 -2.267141636 18.8936155 
   vertex 21.03809978 -2.255346392 18.89363245 
  endloop
 endfacet
 facet normal 0.000000 -0.000000 -0.006062
  outer loop
   vertex 21.21962518 -2.284172175 18.8936381 
   vertex 21.03809978 -2.255346392 18.89363245 
   vertex 21.21973251 -2.251644991 18.8936381 
  endloop
 endfacet
 facet normal 0.000000 -0.000000 -0.003616
  outer loop
   vertex 21.21973251 -2.251644991 18.8936381 
   vertex 21.03809978 -2.255346392 18.89363245 
   vertex 21.0381638 -2.235945459 18.89363245 
  endloop
 endfacet
 facet normal 0.000000 0.000000 -0.007239
  outer loop
   vertex 21.21973251 -2.251644991 18.8936381 
   vertex 21.0381638 -2.235945459 18.89363245 
   vertex 21.21915444 -2.212740034 18.8936381 
  endloop
 endfacet
 facet normal 0.000000 0.000000 -0.004317
  outer loop
   vertex 21.21915444 -2.212740034 18.8936381 
   vertex 21.0381638 -2.235945459 18.89363245 
   vertex 21.03781922 -2.212741682 18.89363245 
  endloop
 endfacet
 facet normal 0.000000 0.000000 -0.000084
  outer loop
   vertex 20.50146962 -2.149675705 18.8936155 
   vertex 20.51091824 -2.149675705 18.8936155 
   vertex 20.50146962 -2.158341963 18.8936155 
  endloop
 endfacet
 facet normal 0.000000 0.000000 -0.000084
  outer loop
   vertex 21.03782111 -2.149675705 18.8936155 
   vertex 21.03781922 -2.158341963 18.8936155 
   vertex 21.0283932 -2.149675705 18.8936155 
  endloop
 endfacet
 facet normal 0.000000 0.000000 -0.000084
  outer loop
   vertex 20.5015167 -2.275813779 18.8936155 
   vertex 20.50146962 -2.267141636 18.8936155 
   vertex 20.51091636 -2.275813779 18.8936155 
  endloop
 endfacet
 facet normal 0.000000 0.000000 -0.000081
  outer loop
   vertex 21.03747653 -2.275813779 18.8936155 
   vertex 21.02839508 -2.275813779 18.8936155 
   vertex 21.03799245 -2.267141636 18.8936155 
  endloop
 endfacet
 facet normal 0.000000 0.000000 -0.000114
  outer loop
   vertex 21.03781922 -2.158341963 18.8936155 
   vertex 21.03781922 -2.170136972 18.8936155 
   vertex 21.0283932 -2.149675705 18.8936155 
  endloop
 endfacet
 facet normal 0.000000 0.000000 -0.000531
  outer loop
   vertex 21.0283932 -2.149675705 18.8936155 
   vertex 21.03781922 -2.170136972 18.8936155 
   vertex 21.00311465 -2.149675705 18.8936155 
  endloop
 endfacet
 facet normal -0.000000 -0.000001 -0.000691
  outer loop
   vertex 21.03781922 -2.170136972 18.8936155 
   vertex 21.03781357 -2.189539317 18.89363245 
   vertex 21.00311465 -2.149675705 18.8936155 
  endloop
 endfacet
 facet normal 0.000000 -0.000001 -0.002052
  outer loop
   vertex 21.00311465 -2.149675705 18.8936155 
   vertex 21.03781357 -2.189539317 18.89363245 
   vertex 20.95294167 -2.149675705 18.8936155 
  endloop
 endfacet
 facet normal 0.000000 0.000000 -0.002020
  outer loop
   vertex 21.03781357 -2.189539317 18.89363245 
   vertex 21.03781922 -2.212741682 18.89363245 
   vertex 20.95294167 -2.149675705 18.8936155 
  endloop
 endfacet
 facet normal 0.000000 0.000000 -0.001999
  outer loop
   vertex 21.03781922 -2.212741682 18.89363245 
   vertex 21.0381638 -2.235945459 18.89363245 
   vertex 20.95294167 -2.149675705 18.8936155 
  endloop
 endfacet
 facet normal -0.000000 0.000000 -0.000115
  outer loop
   vertex 21.03799245 -2.267141636 18.8936155 
   vertex 21.02839508 -2.275813779 18.8936155 
   vertex 21.03809978 -2.255346392 18.89363245 
  endloop
 endfacet
 facet normal 0.000000 0.000000 -0.000531
  outer loop
   vertex 21.02839508 -2.275813779 18.8936155 
   vertex 21.00311653 -2.275813779 18.8936155 
   vertex 21.03809978 -2.255346392 18.89363245 
  endloop
 endfacet
 facet normal 0.000000 -0.000000 -0.000695
  outer loop
   vertex 21.03809978 -2.255346392 18.89363245 
   vertex 21.00311653 -2.275813779 18.8936155 
   vertex 21.0381638 -2.235945459 18.89363245 
  endloop
 endfacet
 facet normal 0.000003 0.000001 -0.006589
  outer loop
   vertex 21.0381638 -2.235945459 18.89363245 
   vertex 21.00311653 -2.275813779 18.8936155 
   vertex 20.95294167 -2.149675705 18.8936155 
  endloop
 endfacet
 facet normal 0.000000 0.000000 -0.006494
  outer loop
   vertex 21.00311653 -2.275813779 18.8936155 
   vertex 20.95294167 -2.275813779 18.8936155 
   vertex 20.95294167 -2.149675705 18.8936155 
  endloop
 endfacet
 facet normal -0.000002 0.000000 -0.010788
  outer loop
   vertex 20.95294167 -2.149675705 18.8936155 
   vertex 20.95294167 -2.275813779 18.8936155 
   vertex 20.86959119 -2.149675705 18.89363245 
  endloop
 endfacet
 facet normal 0.000000 0.000001 -0.010788
  outer loop
   vertex 20.95294167 -2.275813779 18.8936155 
   vertex 20.86959119 -2.275813779 18.8936155 
   vertex 20.86959119 -2.149675705 18.89363245 
  endloop
 endfacet
 facet normal 0.000000 0.000002 -0.012935
  outer loop
   vertex 20.86959119 -2.149675705 18.89363245 
   vertex 20.86959119 -2.275813779 18.8936155 
   vertex 20.76965572 -2.149675705 18.89363245 
  endloop
 endfacet
 facet normal 0.000000 0.000002 -0.012935
  outer loop
   vertex 20.86959119 -2.275813779 18.8936155 
   vertex 20.76965572 -2.275813779 18.8936155 
   vertex 20.76965572 -2.149675705 18.89363245 
  endloop
 endfacet
 facet normal 0.000000 0.000002 -0.012935
  outer loop
   vertex 20.76965572 -2.149675705 18.89363245 
   vertex 20.76965572 -2.275813779 18.8936155 
   vertex 20.66971837 -2.149675705 18.89363245 
  endloop
 endfacet
 facet normal 0.000000 0.000002 -0.012935
  outer loop
   vertex 20.76965572 -2.275813779 18.8936155 
   vertex 20.66971837 -2.275813779 18.8936155 
   vertex 20.66971837 -2.149675705 18.89363245 
  endloop
 endfacet
 facet normal 0.000002 0.000001 -0.010787
  outer loop
   vertex 20.66971837 -2.149675705 18.89363245 
   vertex 20.66971837 -2.275813779 18.8936155 
   vertex 20.58637165 -2.149675705 18.8936155 
  endloop
 endfacet
 facet normal 0.000000 0.000000 -0.010788
  outer loop
   vertex 20.66971837 -2.275813779 18.8936155 
   vertex 20.58636977 -2.275813779 18.8936155 
   vertex 20.58637165 -2.149675705 18.8936155 
  endloop
 endfacet
 facet normal 0.000000 0.000000 -0.006494
  outer loop
   vertex 20.58637165 -2.149675705 18.8936155 
   vertex 20.58636977 -2.275813779 18.8936155 
   vertex 20.53619679 -2.149675705 18.8936155 
  endloop
 endfacet
 facet normal 0.000000 0.000000 -0.006494
  outer loop
   vertex 20.58636977 -2.275813779 18.8936155 
   vertex 20.53619491 -2.275813779 18.8936155 
   vertex 20.53619679 -2.149675705 18.8936155 
  endloop
 endfacet
 facet normal 0.000000 0.000000 -0.003272
  outer loop
   vertex 20.53619679 -2.149675705 18.8936155 
   vertex 20.53619491 -2.275813779 18.8936155 
   vertex 20.51091824 -2.149675705 18.8936155 
  endloop
 endfacet
 facet normal 0.000000 0.000000 -0.001448
  outer loop
   vertex 20.51091824 -2.149675705 18.8936155 
   vertex 20.53619491 -2.275813779 18.8936155 
   vertex 20.50146962 -2.158341963 18.8936155 
  endloop
 endfacet
 facet normal -0.000000 0.000000 -0.000415
  outer loop
   vertex 20.50146962 -2.158341963 18.8936155 
   vertex 20.53619491 -2.275813779 18.8936155 
   vertex 20.5015167 -2.170136972 18.8936155 
  endloop
 endfacet
 facet normal -0.000002 -0.000001 -0.000690
  outer loop
   vertex 20.5015167 -2.170136972 18.8936155 
   vertex 20.53619491 -2.275813779 18.8936155 
   vertex 20.5015167 -2.189539317 18.89363245 
  endloop
 endfacet
 facet normal -0.000000 0.000000 -0.000830
  outer loop
   vertex 20.5015167 -2.189539317 18.89363245 
   vertex 20.53619491 -2.275813779 18.8936155 
   vertex 20.5014715 -2.212741682 18.89363245 
  endloop
 endfacet
 facet normal -0.000000 0.000000 -0.000827
  outer loop
   vertex 20.5014715 -2.212741682 18.89363245 
   vertex 20.53619491 -2.275813779 18.8936155 
   vertex 20.5014715 -2.235945459 18.89363245 
  endloop
 endfacet
 facet normal -0.000000 0.000000 -0.000691
  outer loop
   vertex 20.5014715 -2.235945459 18.89363245 
   vertex 20.53619491 -2.275813779 18.8936155 
   vertex 20.50146962 -2.255346392 18.89363245 
  endloop
 endfacet
 facet normal 0.000000 0.000001 -0.000420
  outer loop
   vertex 20.50146962 -2.255346392 18.89363245 
   vertex 20.53619491 -2.275813779 18.8936155 
   vertex 20.50146962 -2.267141636 18.8936155 
  endloop
 endfacet
 facet normal 0.000000 0.000000 -0.000225
  outer loop
   vertex 20.53619491 -2.275813779 18.8936155 
   vertex 20.51091636 -2.275813779 18.8936155 
   vertex 20.50146962 -2.267141636 18.8936155 
  endloop
 endfacet
 facet normal 0.001400 0.000000 0.000000
  outer loop
   vertex 20.24853162 -2.107002032 18.80211751 
   vertex 20.24853162 -2.121407274 18.80211563 
   vertex 20.24853162 -2.107002032 18.70742228 
  endloop
 endfacet
 facet normal 0.001400 0.000000 0.000000
  outer loop
   vertex 20.24853162 -2.107002032 18.70742228 
   vertex 20.24853162 -2.121407274 18.80211563 
   vertex 20.24853162 -2.121407274 18.70742228 
  endloop
 endfacet
 facet normal 0.001921 -0.000007 0.000000
  outer loop
   vertex 20.24853162 -2.121407274 18.80211563 
   vertex 20.24845442 -2.14117797 18.80211186 
   vertex 20.24853162 -2.121407274 18.70742228 
  endloop
 endfacet
 facet normal 0.001921 -0.000008 0.000000
  outer loop
   vertex 20.24853162 -2.121407274 18.70742228 
   vertex 20.24845442 -2.14117797 18.80211186 
   vertex 20.24845442 -2.14117797 18.70742228 
  endloop
 endfacet
 facet normal 0.003174 0.000000 0.000000
  outer loop
   vertex 20.24845442 -2.14117797 18.80211186 
   vertex 20.24845442 -2.17384308 18.80211186 
   vertex 20.24845442 -2.14117797 18.70742228 
  endloop
 endfacet
 facet normal 0.003174 0.000000 0.000000
  outer loop
   vertex 20.24845442 -2.14117797 18.70742228 
   vertex 20.24845442 -2.17384308 18.80211186 
   vertex 20.24845442 -2.17384308 18.70742228 
  endloop
 endfacet
 facet normal 0.001187 0.000000 0.000000
  outer loop
   vertex 20.24853162 -2.304077502 18.78769603 
   vertex 20.24853162 -2.318486275 18.77542299 
   vertex 20.24853162 -2.304077502 18.70742228 
  endloop
 endfacet
 facet normal 0.001005 0.000000 0.000000
  outer loop
   vertex 20.24853162 -2.304077502 18.70742228 
   vertex 20.24853162 -2.318486275 18.77542299 
   vertex 20.24853162 -2.318486275 18.70742228 
  endloop
 endfacet
 facet normal 0.001921 0.000008 0.000000
  outer loop
   vertex 20.24845442 -2.284309395 18.80211186 
   vertex 20.24853162 -2.304077502 18.78769603 
   vertex 20.24845442 -2.284309395 18.70742228 
  endloop
 endfacet
 facet normal 0.001628 0.000006 0.000000
  outer loop
   vertex 20.24845442 -2.284309395 18.70742228 
   vertex 20.24853162 -2.304077502 18.78769603 
   vertex 20.24853162 -2.304077502 18.70742228 
  endloop
 endfacet
 facet normal 0.000000 -0.001533 0.000000
  outer loop
   vertex 20.33576662 -2.013216499 18.80211186 
   vertex 20.31998188 -2.013216499 18.80211375 
   vertex 20.33576662 -2.013216499 18.70742228 
  endloop
 endfacet
 facet normal 0.000000 -0.001534 0.000000
  outer loop
   vertex 20.33576662 -2.013216499 18.70742228 
   vertex 20.31998188 -2.013216499 18.80211375 
   vertex 20.31998188 -2.013216499 18.70742228 
  endloop
 endfacet
 facet normal 0.003779 -0.000000 0.000000
  outer loop
   vertex 20.24845442 -2.17384308 18.80211186 
   vertex 20.24845254 -2.212741917 18.80211563 
   vertex 20.24845442 -2.17384308 18.70742228 
  endloop
 endfacet
 facet normal 0.003780 0.000000 0.000000
  outer loop
   vertex 20.24845442 -2.17384308 18.70742228 
   vertex 20.24845254 -2.212741917 18.80211563 
   vertex 20.24845254 -2.212741917 18.70742228 
  endloop
 endfacet
 facet normal 0.003174 0.000000 0.000000
  outer loop
   vertex 20.24845442 -2.251644521 18.80211186 
   vertex 20.24845442 -2.284309395 18.80211186 
   vertex 20.24845442 -2.251644521 18.70742228 
  endloop
 endfacet
 facet normal 0.003174 0.000000 0.000000
  outer loop
   vertex 20.24845442 -2.251644521 18.70742228 
   vertex 20.24845442 -2.284309395 18.80211186 
   vertex 20.24845442 -2.284309395 18.70742228 
  endloop
 endfacet
 facet normal 0.003780 0.000000 0.000000
  outer loop
   vertex 20.24845254 -2.212741917 18.80211563 
   vertex 20.24845442 -2.251644521 18.80211186 
   vertex 20.24845254 -2.212741917 18.70742228 
  endloop
 endfacet
 facet normal 0.003780 0.000000 0.000000
  outer loop
   vertex 20.24845254 -2.212741917 18.70742228 
   vertex 20.24845442 -2.251644521 18.80211186 
   vertex 20.24845442 -2.251644521 18.70742228 
  endloop
 endfacet
 facet normal 0.000000 -0.004117 0.000000
  outer loop
   vertex 20.37814043 -2.013216499 18.80211563 
   vertex 20.33576662 -2.013216499 18.80211186 
   vertex 20.37814043 -2.013216499 18.70742228 
  endloop
 endfacet
 facet normal 0.000000 -0.004117 0.000000
  outer loop
   vertex 20.37814043 -2.013216499 18.70742228 
   vertex 20.33576662 -2.013216499 18.80211186 
   vertex 20.33576662 -2.013216499 18.70742228 
  endloop
 endfacet
 facet normal 0.000000 0.001101 0.000000
  outer loop
   vertex 20.31998188 -2.318486275 18.77542299 
   vertex 20.33576662 -2.318486275 18.77542299 
   vertex 20.31998188 -2.318486275 18.70742228 
  endloop
 endfacet
 facet normal 0.000000 0.001101 0.000000
  outer loop
   vertex 20.31998188 -2.318486275 18.70742228 
   vertex 20.33576662 -2.318486275 18.77542299 
   vertex 20.33576662 -2.318486275 18.70742228 
  endloop
 endfacet
 facet normal 0.000000 -0.008173 0.000000
  outer loop
   vertex 20.46225727 -2.013216499 18.80211186 
   vertex 20.37814043 -2.013216499 18.80211563 
   vertex 20.46225727 -2.013216499 18.70742228 
  endloop
 endfacet
 facet normal 0.000000 -0.008173 0.000000
  outer loop
   vertex 20.46225727 -2.013216499 18.70742228 
   vertex 20.37814043 -2.013216499 18.80211563 
   vertex 20.37814043 -2.013216499 18.70742228 
  endloop
 endfacet
 facet normal 0.000000 -0.016280 0.000000
  outer loop
   vertex 20.76954651 -2.013216499 18.80211563 
   vertex 20.60199634 -2.013216499 18.80211186 
   vertex 20.76954651 -2.013216499 18.70742228 
  endloop
 endfacet
 facet normal 0.000000 -0.016279 0.000000
  outer loop
   vertex 20.76954651 -2.013216499 18.70742228 
   vertex 20.60199634 -2.013216499 18.80211186 
   vertex 20.60199634 -2.013216499 18.70742228 
  endloop
 endfacet
 facet normal 0.000000 -0.013577 0.000000
  outer loop
   vertex 20.60199634 -2.013216499 18.80211186 
   vertex 20.46225727 -2.013216499 18.80211186 
   vertex 20.60199634 -2.013216499 18.70742228 
  endloop
 endfacet
 facet normal 0.000000 -0.013577 0.000000
  outer loop
   vertex 20.60199634 -2.013216499 18.70742228 
   vertex 20.46225727 -2.013216499 18.80211186 
   vertex 20.46225727 -2.013216499 18.70742228 
  endloop
 endfacet
 facet normal 0.000000 0.002956 0.000000
  outer loop
   vertex 20.33576662 -2.318486275 18.77542299 
   vertex 20.37814043 -2.318486275 18.77542487 
   vertex 20.33576662 -2.318486275 18.70742228 
  endloop
 endfacet
 facet normal 0.000000 0.002957 0.000000
  outer loop
   vertex 20.33576662 -2.318486275 18.70742228 
   vertex 20.37814043 -2.318486275 18.77542487 
   vertex 20.37814043 -2.318486275 18.70742228 
  endloop
 endfacet
 facet normal 0.000000 -0.016279 0.000000
  outer loop
   vertex 20.93709668 -2.013216499 18.80211186 
   vertex 20.76954651 -2.013216499 18.80211563 
   vertex 20.93709668 -2.013216499 18.70742228 
  endloop
 endfacet
 facet normal 0.000000 -0.016280 0.000000
  outer loop
   vertex 20.93709668 -2.013216499 18.70742228 
   vertex 20.76954651 -2.013216499 18.80211563 
   vertex 20.76954651 -2.013216499 18.70742228 
  endloop
 endfacet
 facet normal 0.000000 -0.013577 0.000000
  outer loop
   vertex 21.07683574 -2.013216499 18.80211186 
   vertex 20.93709668 -2.013216499 18.80211186 
   vertex 21.07683574 -2.013216499 18.70742228 
  endloop
 endfacet
 facet normal 0.000000 -0.013577 0.000000
  outer loop
   vertex 21.07683574 -2.013216499 18.70742228 
   vertex 20.93709668 -2.013216499 18.80211186 
   vertex 20.93709668 -2.013216499 18.70742228 
  endloop
 endfacet
 facet normal 0.000000 0.005869 0.000000
  outer loop
   vertex 20.37814043 -2.318486275 18.77542487 
   vertex 20.46225727 -2.318486275 18.77542299 
   vertex 20.37814043 -2.318486275 18.70742228 
  endloop
 endfacet
 facet normal 0.000000 0.005869 0.000000
  outer loop
   vertex 20.37814043 -2.318486275 18.70742228 
   vertex 20.46225727 -2.318486275 18.77542299 
   vertex 20.46225727 -2.318486275 18.70742228 
  endloop
 endfacet
 facet normal 0.000000 -0.008173 0.000000
  outer loop
   vertex 21.16095258 -2.013216499 18.80211563 
   vertex 21.07683574 -2.013216499 18.80211186 
   vertex 21.16095258 -2.013216499 18.70742228 
  endloop
 endfacet
 facet normal 0.000000 -0.008173 0.000000
  outer loop
   vertex 21.16095258 -2.013216499 18.70742228 
   vertex 21.07683574 -2.013216499 18.80211186 
   vertex 21.07683574 -2.013216499 18.70742228 
  endloop
 endfacet
 facet normal 0.000000 -0.004117 0.000000
  outer loop
   vertex 21.2033264 -2.013216499 18.80211186 
   vertex 21.16095258 -2.013216499 18.80211563 
   vertex 21.2033264 -2.013216499 18.70742228 
  endloop
 endfacet
 facet normal 0.000000 -0.004117 0.000000
  outer loop
   vertex 21.2033264 -2.013216499 18.70742228 
   vertex 21.16095258 -2.013216499 18.80211563 
   vertex 21.16095258 -2.013216499 18.70742228 
  endloop
 endfacet
 facet normal 0.000000 -0.001538 0.000000
  outer loop
   vertex 21.21914879 -2.013216499 18.80210245 
   vertex 21.2033264 -2.013216499 18.80211186 
   vertex 21.21914879 -2.013216499 18.70741663 
  endloop
 endfacet
 facet normal 0.000000 -0.001537 0.000000
  outer loop
   vertex 21.21914879 -2.013216499 18.70741663 
   vertex 21.2033264 -2.013216499 18.80211186 
   vertex 21.2033264 -2.013216499 18.70742228 
  endloop
 endfacet
 facet normal 0.000000 0.009750 0.000000
  outer loop
   vertex 20.46225727 -2.318486275 18.77542299 
   vertex 20.60199634 -2.318486275 18.77542299 
   vertex 20.46225727 -2.318486275 18.70742228 
  endloop
 endfacet
 facet normal 0.000000 0.009750 0.000000
  outer loop
   vertex 20.46225727 -2.318486275 18.70742228 
   vertex 20.60199634 -2.318486275 18.77542299 
   vertex 20.60199634 -2.318486275 18.70742228 
  endloop
 endfacet
 facet normal 0.000000 0.011691 0.000000
  outer loop
   vertex 20.60199634 -2.318486275 18.77542299 
   vertex 20.76954651 -2.318486275 18.77542487 
   vertex 20.60199634 -2.318486275 18.70742228 
  endloop
 endfacet
 facet normal 0.000000 0.011691 0.000000
  outer loop
   vertex 20.60199634 -2.318486275 18.70742228 
   vertex 20.76954651 -2.318486275 18.77542487 
   vertex 20.76954651 -2.318486275 18.70742228 
  endloop
 endfacet
 facet normal 0.000000 0.011691 0.000000
  outer loop
   vertex 20.76954651 -2.318486275 18.77542487 
   vertex 20.93709668 -2.318486275 18.77542299 
   vertex 20.76954651 -2.318486275 18.70742228 
  endloop
 endfacet
 facet normal 0.000000 0.011691 0.000000
  outer loop
   vertex 20.76954651 -2.318486275 18.70742228 
   vertex 20.93709668 -2.318486275 18.77542299 
   vertex 20.93709668 -2.318486275 18.70742228 
  endloop
 endfacet
 facet normal 0.000000 0.009750 0.000000
  outer loop
   vertex 20.93709668 -2.318486275 18.77542299 
   vertex 21.07683574 -2.318486275 18.77542299 
   vertex 20.93709668 -2.318486275 18.70742228 
  endloop
 endfacet
 facet normal 0.000000 0.009750 0.000000
  outer loop
   vertex 20.93709668 -2.318486275 18.70742228 
   vertex 21.07683574 -2.318486275 18.77542299 
   vertex 21.07683574 -2.318486275 18.70742228 
  endloop
 endfacet
 facet normal 0.000000 0.005869 0.000000
  outer loop
   vertex 21.07683574 -2.318486275 18.77542299 
   vertex 21.16095258 -2.318486275 18.77542487 
   vertex 21.07683574 -2.318486275 18.70742228 
  endloop
 endfacet
 facet normal 0.000000 0.005870 0.000000
  outer loop
   vertex 21.07683574 -2.318486275 18.70742228 
   vertex 21.16095258 -2.318486275 18.77542487 
   vertex 21.16095258 -2.318486275 18.70742228 
  endloop
 endfacet
 facet normal -0.001415 0.000000 0.000000
  outer loop
   vertex 21.29060282 -2.121553438 18.80211563 
   vertex 21.29059906 -2.106995912 18.80210245 
   vertex 21.29060282 -2.121553438 18.70742228 
  endloop
 endfacet
 facet normal -0.001414 -0.000001 0.000000
  outer loop
   vertex 21.29060282 -2.121553438 18.70742228 
   vertex 21.29059906 -2.106995912 18.80210245 
   vertex 21.29059906 -2.106995912 18.70741663 
  endloop
 endfacet
 facet normal 0.000000 0.001061 0.000000
  outer loop
   vertex 21.2033264 -2.318486275 18.77542299 
   vertex 21.21853495 -2.318486275 18.77541357 
   vertex 21.2033264 -2.318486275 18.70742228 
  endloop
 endfacet
 facet normal 0.000000 0.001061 0.000000
  outer loop
   vertex 21.2033264 -2.318486275 18.70742228 
   vertex 21.21853495 -2.318486275 18.77541357 
   vertex 21.21853495 -2.318486275 18.70741663 
  endloop
 endfacet
 facet normal 0.000000 0.002957 0.000000
  outer loop
   vertex 21.16095258 -2.318486275 18.77542487 
   vertex 21.2033264 -2.318486275 18.77542299 
   vertex 21.16095258 -2.318486275 18.70742228 
  endloop
 endfacet
 facet normal 0.000000 0.002957 0.000000
  outer loop
   vertex 21.16095258 -2.318486275 18.70742228 
   vertex 21.2033264 -2.318486275 18.77542299 
   vertex 21.2033264 -2.318486275 18.70742228 
  endloop
 endfacet
 facet normal -0.001921 0.000000 0.000000
  outer loop
   vertex 21.29059717 -2.141322251 18.80211186 
   vertex 21.29060282 -2.121553438 18.80211563 
   vertex 21.29059717 -2.141322251 18.70742228 
  endloop
 endfacet
 facet normal -0.001921 0.000000 0.000000
  outer loop
   vertex 21.29059717 -2.141322251 18.70742228 
   vertex 21.29060282 -2.121553438 18.80211563 
   vertex 21.29060282 -2.121553438 18.70742228 
  endloop
 endfacet
 facet normal -0.003159 -0.000000 0.000000
  outer loop
   vertex 21.29060471 -2.173832959 18.80211186 
   vertex 21.29059717 -2.141322251 18.80211186 
   vertex 21.29060471 -2.173832959 18.70742228 
  endloop
 endfacet
 facet normal -0.003159 -0.000001 0.000000
  outer loop
   vertex 21.29060471 -2.173832959 18.70742228 
   vertex 21.29059717 -2.141322251 18.80211186 
   vertex 21.29059717 -2.141322251 18.70742228 
  endloop
 endfacet
 facet normal -0.001404 0.000074 0.000000
  outer loop
   vertex 21.29076852 -2.3055848 18.78769603 
   vertex 21.29076852 -2.3055848 18.70742228 
   vertex 21.28986283 -2.322633934 18.77541357 
  endloop
 endfacet
 facet normal -0.001190 0.000063 0.000000
  outer loop
   vertex 21.28986283 -2.322633934 18.77541357 
   vertex 21.29076852 -2.3055848 18.70742228 
   vertex 21.28986283 -2.322633934 18.70741663 
  endloop
 endfacet
 facet normal -0.003780 0.000000 0.000000
  outer loop
   vertex 21.29060659 -2.212741917 18.80211563 
   vertex 21.29060471 -2.173832959 18.80211186 
   vertex 21.29060659 -2.212741917 18.70742228 
  endloop
 endfacet
 facet normal -0.003780 -0.000000 0.000000
  outer loop
   vertex 21.29060659 -2.212741917 18.70742228 
   vertex 21.29060471 -2.173832959 18.80211186 
   vertex 21.29060471 -2.173832959 18.70742228 
  endloop
 endfacet
 facet normal -0.002121 -0.000017 0.000000
  outer loop
   vertex 21.29059529 -2.283751337 18.80211186 
   vertex 21.29059529 -2.283751337 18.70742228 
   vertex 21.29076852 -2.3055848 18.78769603 
  endloop
 endfacet
 facet normal -0.001798 -0.000014 0.000000
  outer loop
   vertex 21.29076852 -2.3055848 18.78769603 
   vertex 21.29059529 -2.283751337 18.70742228 
   vertex 21.29076852 -2.3055848 18.70742228 
  endloop
 endfacet
 facet normal -0.003781 0.000000 0.000000
  outer loop
   vertex 21.29060471 -2.251653465 18.80211186 
   vertex 21.29060659 -2.212741917 18.80211563 
   vertex 21.29060471 -2.251653465 18.70742228 
  endloop
 endfacet
 facet normal -0.003781 0.000000 0.000000
  outer loop
   vertex 21.29060471 -2.251653465 18.70742228 
   vertex 21.29060659 -2.212741917 18.80211563 
   vertex 21.29060659 -2.212741917 18.70742228 
  endloop
 endfacet
 facet normal -0.003119 0.000001 0.000000
  outer loop
   vertex 21.29059529 -2.283751337 18.80211186 
   vertex 21.29060471 -2.251653465 18.80211186 
   vertex 21.29059529 -2.283751337 18.70742228 
  endloop
 endfacet
 facet normal -0.003119 0.000001 0.000000
  outer loop
   vertex 21.29059529 -2.283751337 18.70742228 
   vertex 21.29060471 -2.251653465 18.80211186 
   vertex 21.29060471 -2.251653465 18.70742228 
  endloop
 endfacet
 facet normal 0.000000 0.000482 -0.001522
  outer loop
   vertex 20.33575344 -2.107002032 18.89361738 
   vertex 20.31994046 -2.107002032 18.89361738 
   vertex 20.33576662 -2.013216499 18.92332086 
  endloop
 endfacet
 facet normal 0.000000 0.000481 -0.001519
  outer loop
   vertex 20.33576662 -2.013216499 18.92332086 
   vertex 20.31994046 -2.107002032 18.89361738 
   vertex 20.31998188 -2.013216499 18.92332086 
  endloop
 endfacet
 facet normal 0.009113 0.000000 0.000000
  outer loop
   vertex 20.24853162 -2.107002032 18.80211751 
   vertex 20.24853162 -2.107002032 18.70742228 
   vertex 20.24853162 -2.013216499 18.80211375 
  endloop
 endfacet
 facet normal 0.009112 0.000000 0.000000
  outer loop
   vertex 20.24853162 -2.013216499 18.80211375 
   vertex 20.24853162 -2.107002032 18.70742228 
   vertex 20.24853162 -2.013216499 18.70742228 
  endloop
 endfacet
 facet normal 0.000000 0.000000 0.001519
  outer loop
   vertex 20.31998188 -2.107002032 18.70742228 
   vertex 20.33576662 -2.107002032 18.70742228 
   vertex 20.31998188 -2.013216499 18.70742228 
  endloop
 endfacet
 facet normal 0.000000 0.000000 0.001519
  outer loop
   vertex 20.31998188 -2.013216499 18.70742228 
   vertex 20.33576662 -2.107002032 18.70742228 
   vertex 20.33576662 -2.013216499 18.70742228 
  endloop
 endfacet
 facet normal 0.000000 0.001292 -0.004078
  outer loop
   vertex 20.3781329 -2.107002032 18.89361927 
   vertex 20.33575344 -2.107002032 18.89361738 
   vertex 20.37814043 -2.013216499 18.92332274 
  endloop
 endfacet
 facet normal 0.000000 0.001291 -0.004078
  outer loop
   vertex 20.37814043 -2.013216499 18.92332274 
   vertex 20.33575344 -2.107002032 18.89361738 
   vertex 20.33576662 -2.013216499 18.92332086 
  endloop
 endfacet
 facet normal 0.000000 0.000000 0.004078
  outer loop
   vertex 20.33576662 -2.107002032 18.70742228 
   vertex 20.37814043 -2.107002032 18.70742228 
   vertex 20.33576662 -2.013216499 18.70742228 
  endloop
 endfacet
 facet normal 0.000000 0.000000 0.004078
  outer loop
   vertex 20.33576662 -2.013216499 18.70742228 
   vertex 20.37814043 -2.107002032 18.70742228 
   vertex 20.37814043 -2.013216499 18.70742228 
  endloop
 endfacet
 facet normal 0.000000 0.002564 -0.008095
  outer loop
   vertex 20.46225351 -2.107002032 18.89361738 
   vertex 20.3781329 -2.107002032 18.89361927 
   vertex 20.46225727 -2.013216499 18.92332086 
  endloop
 endfacet
 facet normal 0.000000 0.002564 -0.008095
  outer loop
   vertex 20.46225727 -2.013216499 18.92332086 
   vertex 20.3781329 -2.107002032 18.89361927 
   vertex 20.37814043 -2.013216499 18.92332274 
  endloop
 endfacet
 facet normal 0.000000 0.000000 0.008095
  outer loop
   vertex 20.37814043 -2.107002032 18.70742228 
   vertex 20.46225727 -2.107002032 18.70742228 
   vertex 20.37814043 -2.013216499 18.70742228 
  endloop
 endfacet
 facet normal 0.000000 0.000000 0.008095
  outer loop
   vertex 20.37814043 -2.013216499 18.70742228 
   vertex 20.46225727 -2.107002032 18.70742228 
   vertex 20.46225727 -2.013216499 18.70742228 
  endloop
 endfacet
 facet normal 0.000000 0.005105 -0.016124
  outer loop
   vertex 20.76954651 -2.107002032 18.89363245 
   vertex 20.60199445 -2.107002032 18.89363245 
   vertex 20.76954651 -2.013216499 18.9233265 
  endloop
 endfacet
 facet normal 0.000000 0.005105 -0.016124
  outer loop
   vertex 20.76954651 -2.013216499 18.9233265 
   vertex 20.60199445 -2.107002032 18.89363245 
   vertex 20.60199634 -2.013216499 18.9233265 
  endloop
 endfacet
 facet normal 0.000000 0.000000 0.016124
  outer loop
   vertex 20.60199634 -2.107002032 18.70742228 
   vertex 20.76954651 -2.107002032 18.70742228 
   vertex 20.60199634 -2.013216499 18.70742228 
  endloop
 endfacet
 facet normal 0.000000 0.000000 0.016124
  outer loop
   vertex 20.60199634 -2.013216499 18.70742228 
   vertex 20.76954651 -2.107002032 18.70742228 
   vertex 20.76954651 -2.013216499 18.70742228 
  endloop
 endfacet
 facet normal 0.000001 0.004258 -0.013448
  outer loop
   vertex 20.60199445 -2.107002032 18.89363245 
   vertex 20.46225351 -2.107002032 18.89361738 
   vertex 20.60199634 -2.013216499 18.9233265 
  endloop
 endfacet
 facet normal 0.000000 0.004259 -0.013447
  outer loop
   vertex 20.60199634 -2.013216499 18.9233265 
   vertex 20.46225351 -2.107002032 18.89361738 
   vertex 20.46225727 -2.013216499 18.92332086 
  endloop
 endfacet
 facet normal 0.000000 0.000000 0.013447
  outer loop
   vertex 20.46225727 -2.107002032 18.70742228 
   vertex 20.60199634 -2.107002032 18.70742228 
   vertex 20.46225727 -2.013216499 18.70742228 
  endloop
 endfacet
 facet normal 0.000000 0.000000 0.013447
  outer loop
   vertex 20.46225727 -2.013216499 18.70742228 
   vertex 20.60199634 -2.107002032 18.70742228 
   vertex 20.60199634 -2.013216499 18.70742228 
  endloop
 endfacet
 facet normal 0.000000 0.005105 -0.016124
  outer loop
   vertex 20.93709856 -2.107002032 18.89363245 
   vertex 20.76954651 -2.107002032 18.89363245 
   vertex 20.93709668 -2.013216499 18.9233265 
  endloop
 endfacet
 facet normal 0.000000 0.005105 -0.016124
  outer loop
   vertex 20.93709668 -2.013216499 18.9233265 
   vertex 20.76954651 -2.107002032 18.89363245 
   vertex 20.76954651 -2.013216499 18.9233265 
  endloop
 endfacet
 facet normal 0.000000 0.000000 0.016124
  outer loop
   vertex 20.76954651 -2.107002032 18.70742228 
   vertex 20.93709668 -2.107002032 18.70742228 
   vertex 20.76954651 -2.013216499 18.70742228 
  endloop
 endfacet
 facet normal 0.000000 0.000000 0.016124
  outer loop
   vertex 20.76954651 -2.013216499 18.70742228 
   vertex 20.93709668 -2.107002032 18.70742228 
   vertex 20.93709668 -2.013216499 18.70742228 
  endloop
 endfacet
 facet normal -0.000001 0.004260 -0.013448
  outer loop
   vertex 21.07684139 -2.107002032 18.89361738 
   vertex 20.93709856 -2.107002032 18.89363245 
   vertex 21.07683574 -2.013216499 18.9233265 
  endloop
 endfacet
 facet normal 0.000000 0.004258 -0.013447
  outer loop
   vertex 21.07683574 -2.013216499 18.9233265 
   vertex 20.93709856 -2.107002032 18.89363245 
   vertex 20.93709668 -2.013216499 18.9233265 
  endloop
 endfacet
 facet normal 0.000000 0.000000 0.013447
  outer loop
   vertex 20.93709668 -2.107002032 18.70742228 
   vertex 21.07683574 -2.107002032 18.70742228 
   vertex 20.93709668 -2.013216499 18.70742228 
  endloop
 endfacet
 facet normal 0.000000 0.000000 0.013447
  outer loop
   vertex 20.93709668 -2.013216499 18.70742228 
   vertex 21.07683574 -2.107002032 18.70742228 
   vertex 21.07683574 -2.013216499 18.70742228 
  endloop
 endfacet
 facet normal 0.000000 0.002564 -0.008095
  outer loop
   vertex 21.160962 -2.107002032 18.89361927 
   vertex 21.07684139 -2.107002032 18.89361738 
   vertex 21.16095258 -2.013216499 18.9233265 
  endloop
 endfacet
 facet normal 0.000000 0.002564 -0.008095
  outer loop
   vertex 21.16095258 -2.013216499 18.9233265 
   vertex 21.07684139 -2.107002032 18.89361738 
   vertex 21.07683574 -2.013216499 18.9233265 
  endloop
 endfacet
 facet normal 0.000000 0.000000 0.008095
  outer loop
   vertex 21.07683574 -2.107002032 18.70742228 
   vertex 21.16095258 -2.107002032 18.70742228 
   vertex 21.07683574 -2.013216499 18.70742228 
  endloop
 endfacet
 facet normal 0.000000 0.000000 0.008095
  outer loop
   vertex 21.07683574 -2.013216499 18.70742228 
   vertex 21.16095258 -2.107002032 18.70742228 
   vertex 21.16095258 -2.013216499 18.70742228 
  endloop
 endfacet
 facet normal -0.000000 0.001292 -0.004078
  outer loop
   vertex 21.20333958 -2.107002032 18.89361738 
   vertex 21.160962 -2.107002032 18.89361927 
   vertex 21.2033264 -2.013216499 18.9233265 
  endloop
 endfacet
 facet normal 0.000000 0.001292 -0.004078
  outer loop
   vertex 21.2033264 -2.013216499 18.9233265 
   vertex 21.160962 -2.107002032 18.89361927 
   vertex 21.16095258 -2.013216499 18.9233265 
  endloop
 endfacet
 facet normal 0.000000 0.000000 0.004078
  outer loop
   vertex 21.16095258 -2.107002032 18.70742228 
   vertex 21.2033264 -2.107002032 18.70742228 
   vertex 21.16095258 -2.013216499 18.70742228 
  endloop
 endfacet
 facet normal 0.000000 0.000000 0.004078
  outer loop
   vertex 21.16095258 -2.013216499 18.70742228 
   vertex 21.2033264 -2.107002032 18.70742228 
   vertex 21.2033264 -2.013216499 18.70742228 
  endloop
 endfacet
 facet normal -0.000001 0.000482 -0.001522
  outer loop
   vertex 21.21915256 -2.107002032 18.89360985 
   vertex 21.20333958 -2.107002032 18.89361738 
   vertex 21.21914879 -2.013216499 18.92331144 
  endloop
 endfacet
 facet normal -0.000001 0.000482 -0.001523
  outer loop
   vertex 21.21914879 -2.013216499 18.92331144 
   vertex 21.20333958 -2.107002032 18.89361738 
   vertex 21.2033264 -2.013216499 18.9233265 
  endloop
 endfacet
 facet normal 0.000000 0.000000 0.001523
  outer loop
   vertex 21.2033264 -2.107002032 18.70742228 
   vertex 21.21914879 -2.107002032 18.70741663 
   vertex 21.2033264 -2.013216499 18.70742228 
  endloop
 endfacet
 facet normal 0.000001 0.000000 0.001523
  outer loop
   vertex 21.2033264 -2.013216499 18.70742228 
   vertex 21.21914879 -2.107002032 18.70741663 
   vertex 21.21914879 -2.013216499 18.70741663 
  endloop
 endfacet
 facet normal -0.009111 0.000000 0.000000
  outer loop
   vertex 21.29059906 -2.106995912 18.70741663 
   vertex 21.29059906 -2.106995912 18.80210245 
   vertex 21.29059906 -2.013216499 18.70741663 
  endloop
 endfacet
 facet normal -0.009111 0.000000 0.000000
  outer loop
   vertex 21.29059906 -2.013216499 18.70741663 
   vertex 21.29059906 -2.106995912 18.80210245 
   vertex 21.29059906 -2.013216499 18.80210245 
  endloop
 endfacet
 facet normal 0.000000 0.000000 -0.001067
  outer loop
   vertex 20.31998188 -2.107002032 18.80211751 
   vertex 20.31998188 -2.121550613 18.80211563 
   vertex 20.24853162 -2.107002032 18.80211751 
  endloop
 endfacet
 facet normal 0.000000 0.000000 -0.001056
  outer loop
   vertex 20.24853162 -2.107002032 18.80211751 
   vertex 20.31998188 -2.121550613 18.80211563 
   vertex 20.24853162 -2.121407274 18.80211563 
  endloop
 endfacet
 facet normal 0.000000 0.000000 0.001067
  outer loop
   vertex 20.31998188 -2.121550613 18.70742228 
   vertex 20.31998188 -2.107002032 18.70742228 
   vertex 20.24853162 -2.121407274 18.70742228 
  endloop
 endfacet
 facet normal 0.000000 0.000000 0.001056
  outer loop
   vertex 20.24853162 -2.121407274 18.70742228 
   vertex 20.31998188 -2.107002032 18.70742228 
   vertex 20.24853162 -2.107002032 18.70742228 
  endloop
 endfacet
 facet normal -0.000000 0.000000 -0.001450
  outer loop
   vertex 20.31998188 -2.121550613 18.80211563 
   vertex 20.3199028 -2.14132178 18.80211186 
   vertex 20.24853162 -2.121407274 18.80211563 
  endloop
 endfacet
 facet normal 0.000000 0.000000 -0.001449
  outer loop
   vertex 20.24853162 -2.121407274 18.80211563 
   vertex 20.3199028 -2.14132178 18.80211186 
   vertex 20.24845442 -2.14117797 18.80211186 
  endloop
 endfacet
 facet normal 0.000000 0.000000 0.001450
  outer loop
   vertex 20.31998188 -2.121550613 18.70742228 
   vertex 20.24853162 -2.121407274 18.70742228 
   vertex 20.3199028 -2.14132178 18.70742228 
  endloop
 endfacet
 facet normal 0.000000 0.000000 0.001449
  outer loop
   vertex 20.3199028 -2.14132178 18.70742228 
   vertex 20.24853162 -2.121407274 18.70742228 
   vertex 20.24845442 -2.14117797 18.70742228 
  endloop
 endfacet
 facet normal 0.000000 0.000000 -0.002384
  outer loop
   vertex 20.3199028 -2.173844257 18.80211186 
   vertex 20.24845442 -2.17384308 18.80211186 
   vertex 20.3199028 -2.14132178 18.80211186 
  endloop
 endfacet
 facet normal 0.000000 0.000000 -0.002395
  outer loop
   vertex 20.3199028 -2.14132178 18.80211186 
   vertex 20.24845442 -2.17384308 18.80211186 
   vertex 20.24845442 -2.14117797 18.80211186 
  endloop
 endfacet
 facet normal 0.000000 0.000000 0.002384
  outer loop
   vertex 20.3199028 -2.173844257 18.70742228 
   vertex 20.3199028 -2.14132178 18.70742228 
   vertex 20.24845442 -2.17384308 18.70742228 
  endloop
 endfacet
 facet normal -0.000000 0.000000 0.002395
  outer loop
   vertex 20.24845442 -2.17384308 18.70742228 
   vertex 20.3199028 -2.14132178 18.70742228 
   vertex 20.24845442 -2.14117797 18.70742228 
  endloop
 endfacet
 facet normal -0.000002 0.000900 -0.001067
  outer loop
   vertex 20.31998188 -2.303933928 18.78769603 
   vertex 20.31998188 -2.318486275 18.77542299 
   vertex 20.24853162 -2.304077502 18.78769603 
  endloop
 endfacet
 facet normal 0.000000 0.000900 -0.001056
  outer loop
   vertex 20.24853162 -2.304077502 18.78769603 
   vertex 20.31998188 -2.318486275 18.77542299 
   vertex 20.24853162 -2.318486275 18.77542299 
  endloop
 endfacet
 facet normal 0.000000 0.004986 0.000000
  outer loop
   vertex 20.31998188 -2.318486275 18.77542299 
   vertex 20.31998188 -2.318486275 18.70742228 
   vertex 20.24853162 -2.318486275 18.77542299 
  endloop
 endfacet
 facet normal 0.000000 0.004985 0.000000
  outer loop
   vertex 20.24853162 -2.318486275 18.77542299 
   vertex 20.31998188 -2.318486275 18.70742228 
   vertex 20.24853162 -2.318486275 18.70742228 
  endloop
 endfacet
 facet normal 0.000000 0.000000 0.001067
  outer loop
   vertex 20.31998188 -2.318486275 18.70742228 
   vertex 20.31998188 -2.303933928 18.70742228 
   vertex 20.24853162 -2.318486275 18.70742228 
  endloop
 endfacet
 facet normal 0.000000 0.000000 0.001056
  outer loop
   vertex 20.24853162 -2.318486275 18.70742228 
   vertex 20.31998188 -2.303933928 18.70742228 
   vertex 20.24853162 -2.304077502 18.70742228 
  endloop
 endfacet
 facet normal -0.000002 0.001057 -0.001449
  outer loop
   vertex 20.31998188 -2.303933928 18.78769603 
   vertex 20.24853162 -2.304077502 18.78769603 
   vertex 20.3199028 -2.284166762 18.80211186 
  endloop
 endfacet
 facet normal -0.000002 0.001057 -0.001449
  outer loop
   vertex 20.3199028 -2.284166762 18.80211186 
   vertex 20.24853162 -2.304077502 18.78769603 
   vertex 20.24845442 -2.284309395 18.80211186 
  endloop
 endfacet
 facet normal -0.000000 0.000000 0.001449
  outer loop
   vertex 20.31998188 -2.303933928 18.70742228 
   vertex 20.3199028 -2.284166762 18.70742228 
   vertex 20.24853162 -2.304077502 18.70742228 
  endloop
 endfacet
 facet normal 0.000000 0.000000 0.001449
  outer loop
   vertex 20.24853162 -2.304077502 18.70742228 
   vertex 20.3199028 -2.284166762 18.70742228 
   vertex 20.24845442 -2.284309395 18.70742228 
  endloop
 endfacet
 facet normal -0.000000 -0.000000 -0.002852
  outer loop
   vertex 20.3199028 -2.173844257 18.80211186 
   vertex 20.31990092 -2.212741917 18.80211563 
   vertex 20.24845442 -2.17384308 18.80211186 
  endloop
 endfacet
 facet normal 0.000000 -0.000000 -0.002852
  outer loop
   vertex 20.24845442 -2.17384308 18.80211186 
   vertex 20.31990092 -2.212741917 18.80211563 
   vertex 20.24845254 -2.212741917 18.80211563 
  endloop
 endfacet
 facet normal 0.000000 0.000000 0.002852
  outer loop
   vertex 20.31990092 -2.212741917 18.70742228 
   vertex 20.3199028 -2.173844257 18.70742228 
   vertex 20.24845254 -2.212741917 18.70742228 
  endloop
 endfacet
 facet normal 0.000000 0.000000 0.002852
  outer loop
   vertex 20.24845254 -2.212741917 18.70742228 
   vertex 20.3199028 -2.173844257 18.70742228 
   vertex 20.24845442 -2.17384308 18.70742228 
  endloop
 endfacet
 facet normal 0.000000 0.000000 -0.002384
  outer loop
   vertex 20.3199028 -2.251643344 18.80211186 
   vertex 20.3199028 -2.284166762 18.80211186 
   vertex 20.24845442 -2.251644521 18.80211186 
  endloop
 endfacet
 facet normal 0.000000 0.000000 -0.002395
  outer loop
   vertex 20.24845442 -2.251644521 18.80211186 
   vertex 20.3199028 -2.284166762 18.80211186 
   vertex 20.24845442 -2.284309395 18.80211186 
  endloop
 endfacet
 facet normal 0.000000 0.000000 0.002384
  outer loop
   vertex 20.3199028 -2.251643344 18.70742228 
   vertex 20.24845442 -2.251644521 18.70742228 
   vertex 20.3199028 -2.284166762 18.70742228 
  endloop
 endfacet
 facet normal -0.000000 0.000000 0.002395
  outer loop
   vertex 20.3199028 -2.284166762 18.70742228 
   vertex 20.24845442 -2.251644521 18.70742228 
   vertex 20.24845442 -2.284309395 18.70742228 
  endloop
 endfacet
 facet normal 0.000000 0.000000 -0.002852
  outer loop
   vertex 20.31990092 -2.212741917 18.80211563 
   vertex 20.3199028 -2.251643344 18.80211186 
   vertex 20.24845254 -2.212741917 18.80211563 
  endloop
 endfacet
 facet normal 0.000000 0.000000 -0.002852
  outer loop
   vertex 20.24845254 -2.212741917 18.80211563 
   vertex 20.3199028 -2.251643344 18.80211186 
   vertex 20.24845442 -2.251644521 18.80211186 
  endloop
 endfacet
 facet normal 0.000000 0.000000 0.002852
  outer loop
   vertex 20.3199028 -2.251643344 18.70742228 
   vertex 20.31990092 -2.212741917 18.70742228 
   vertex 20.24845442 -2.251644521 18.70742228 
  endloop
 endfacet
 facet normal 0.000000 0.000000 0.002852
  outer loop
   vertex 20.24845442 -2.251644521 18.70742228 
   vertex 20.31990092 -2.212741917 18.70742228 
   vertex 20.24845254 -2.212741917 18.70742228 
  endloop
 endfacet
 facet normal 0.000000 0.000000 0.006876
  outer loop
   vertex 20.31998188 -2.107002032 18.70742228 
   vertex 20.31998188 -2.013216499 18.70742228 
   vertex 20.24853162 -2.107002032 18.70742228 
  endloop
 endfacet
 facet normal 0.000000 0.000000 0.006876
  outer loop
   vertex 20.24853162 -2.107002032 18.70742228 
   vertex 20.31998188 -2.013216499 18.70742228 
   vertex 20.24853162 -2.013216499 18.70742228 
  endloop
 endfacet
 facet normal 0.000000 -0.006942 0.000000
  outer loop
   vertex 20.31998188 -2.013216499 18.70742228 
   vertex 20.31998188 -2.013216499 18.80211375 
   vertex 20.24853162 -2.013216499 18.70742228 
  endloop
 endfacet
 facet normal 0.000000 -0.006942 0.000000
  outer loop
   vertex 20.24853162 -2.013216499 18.70742228 
   vertex 20.31998188 -2.013216499 18.80211375 
   vertex 20.24853162 -2.013216499 18.80211375 
  endloop
 endfacet
 facet normal 0.000000 -0.000000 -0.006876
  outer loop
   vertex 20.31998188 -2.013216499 18.80211375 
   vertex 20.31998188 -2.107002032 18.80211751 
   vertex 20.24853162 -2.013216499 18.80211375 
  endloop
 endfacet
 facet normal 0.000000 -0.000000 -0.006876
  outer loop
   vertex 20.24853162 -2.013216499 18.80211375 
   vertex 20.31998188 -2.107002032 18.80211751 
   vertex 20.24853162 -2.107002032 18.80211751 
  endloop
 endfacet
 facet normal -0.000000 -0.000001 -0.001067
  outer loop
   vertex 21.21915444 -2.121550613 18.80211563 
   vertex 21.21914879 -2.107002032 18.80210245 
   vertex 21.29060282 -2.121553438 18.80211563 
  endloop
 endfacet
 facet normal 0.000000 -0.000001 -0.001067
  outer loop
   vertex 21.29060282 -2.121553438 18.80211563 
   vertex 21.21914879 -2.107002032 18.80210245 
   vertex 21.29059906 -2.106995912 18.80210245 
  endloop
 endfacet
 facet normal -0.000000 0.000000 0.001067
  outer loop
   vertex 21.21914879 -2.107002032 18.70741663 
   vertex 21.21915444 -2.121550613 18.70742228 
   vertex 21.29059906 -2.106995912 18.70741663 
  endloop
 endfacet
 facet normal 0.000000 0.000000 0.001067
  outer loop
   vertex 21.29059906 -2.106995912 18.70741663 
   vertex 21.21915444 -2.121550613 18.70742228 
   vertex 21.29060282 -2.121553438 18.70742228 
  endloop
 endfacet
 facet normal 0.000000 0.000000 -0.001449
  outer loop
   vertex 21.21914691 -2.14132178 18.80211186 
   vertex 21.21915444 -2.121550613 18.80211563 
   vertex 21.29059717 -2.141322251 18.80211186 
  endloop
 endfacet
 facet normal 0.000000 0.000000 -0.001449
  outer loop
   vertex 21.29059717 -2.141322251 18.80211186 
   vertex 21.21915444 -2.121550613 18.80211563 
   vertex 21.29060282 -2.121553438 18.80211563 
  endloop
 endfacet
 facet normal -0.000000 0.000000 0.001449
  outer loop
   vertex 21.21915444 -2.121550613 18.70742228 
   vertex 21.21914691 -2.14132178 18.70742228 
   vertex 21.29060282 -2.121553438 18.70742228 
  endloop
 endfacet
 facet normal 0.000000 0.000000 0.001449
  outer loop
   vertex 21.29060282 -2.121553438 18.70742228 
   vertex 21.21914691 -2.14132178 18.70742228 
   vertex 21.29059717 -2.141322251 18.70742228 
  endloop
 endfacet
 facet normal -0.000000 0.000000 -0.002384
  outer loop
   vertex 21.21915632 -2.173844257 18.80211186 
   vertex 21.21914691 -2.14132178 18.80211186 
   vertex 21.29060471 -2.173832959 18.80211186 
  endloop
 endfacet
 facet normal 0.000000 0.000000 -0.002383
  outer loop
   vertex 21.29060471 -2.173832959 18.80211186 
   vertex 21.21914691 -2.14132178 18.80211186 
   vertex 21.29059717 -2.141322251 18.80211186 
  endloop
 endfacet
 facet normal -0.000000 0.000000 0.002384
  outer loop
   vertex 21.21914691 -2.14132178 18.70742228 
   vertex 21.21915632 -2.173844257 18.70742228 
   vertex 21.29059717 -2.141322251 18.70742228 
  endloop
 endfacet
 facet normal 0.000000 0.000000 0.002383
  outer loop
   vertex 21.29059717 -2.141322251 18.70742228 
   vertex 21.21915632 -2.173844257 18.70742228 
   vertex 21.29060471 -2.173832959 18.70742228 
  endloop
 endfacet
 facet normal 0.000052 0.000899 -0.001069
  outer loop
   vertex 21.21853495 -2.318486275 18.77541357 
   vertex 21.21938228 -2.303933928 18.78769603 
   vertex 21.28986283 -2.322633934 18.77541357 
  endloop
 endfacet
 facet normal 0.000021 0.000900 -0.001250
  outer loop
   vertex 21.28986283 -2.322633934 18.77541357 
   vertex 21.21938228 -2.303933928 18.78769603 
   vertex 21.29076852 -2.3055848 18.78769603 
  endloop
 endfacet
 facet normal 0.000000 -0.000000 0.001069
  outer loop
   vertex 21.21853495 -2.318486275 18.70741663 
   vertex 21.28986283 -2.322633934 18.70741663 
   vertex 21.21938228 -2.303933928 18.70742228 
  endloop
 endfacet
 facet normal -0.000000 -0.000000 0.001250
  outer loop
   vertex 21.21938228 -2.303933928 18.70742228 
   vertex 21.28986283 -2.322633934 18.70741663 
   vertex 21.29076852 -2.3055848 18.70742228 
  endloop
 endfacet
 facet normal 0.000289 0.004977 0.000000
  outer loop
   vertex 21.21853495 -2.318486275 18.70741663 
   vertex 21.21853495 -2.318486275 18.77541357 
   vertex 21.28986283 -2.322633934 18.70741663 
  endloop
 endfacet
 facet normal 0.000289 0.004977 0.000000
  outer loop
   vertex 21.28986283 -2.322633934 18.70741663 
   vertex 21.21853495 -2.318486275 18.77541357 
   vertex 21.28986283 -2.322633934 18.77541357 
  endloop
 endfacet
 facet normal 0.000000 -0.000000 -0.002852
  outer loop
   vertex 21.21915821 -2.212741917 18.80211563 
   vertex 21.21915632 -2.173844257 18.80211186 
   vertex 21.29060659 -2.212741917 18.80211563 
  endloop
 endfacet
 facet normal 0.000000 -0.000000 -0.002852
  outer loop
   vertex 21.29060659 -2.212741917 18.80211563 
   vertex 21.21915632 -2.173844257 18.80211186 
   vertex 21.29060471 -2.173832959 18.80211186 
  endloop
 endfacet
 facet normal 0.000000 0.000000 0.002852
  outer loop
   vertex 21.21915632 -2.173844257 18.70742228 
   vertex 21.21915821 -2.212741917 18.70742228 
   vertex 21.29060471 -2.173832959 18.70742228 
  endloop
 endfacet
 facet normal 0.000000 0.000000 0.002853
  outer loop
   vertex 21.29060471 -2.173832959 18.70742228 
   vertex 21.21915821 -2.212741917 18.70742228 
   vertex 21.29060659 -2.212741917 18.70742228 
  endloop
 endfacet
 facet normal -0.000006 0.001057 -0.001449
  outer loop
   vertex 21.21914691 -2.284166762 18.80211186 
   vertex 21.29059529 -2.283751337 18.80211186 
   vertex 21.21938228 -2.303933928 18.78769603 
  endloop
 endfacet
 facet normal 0.000024 0.001056 -0.001599
  outer loop
   vertex 21.21938228 -2.303933928 18.78769603 
   vertex 21.29059529 -2.283751337 18.80211186 
   vertex 21.29076852 -2.3055848 18.78769603 
  endloop
 endfacet
 facet normal -0.000000 0.000000 0.001449
  outer loop
   vertex 21.21914691 -2.284166762 18.70742228 
   vertex 21.21938228 -2.303933928 18.70742228 
   vertex 21.29059529 -2.283751337 18.70742228 
  endloop
 endfacet
 facet normal 0.000000 0.000000 0.001599
  outer loop
   vertex 21.29059529 -2.283751337 18.70742228 
   vertex 21.21938228 -2.303933928 18.70742228 
   vertex 21.29076852 -2.3055848 18.70742228 
  endloop
 endfacet
 facet normal -0.000000 0.000000 -0.002852
  outer loop
   vertex 21.21915632 -2.251643344 18.80211186 
   vertex 21.21915821 -2.212741917 18.80211563 
   vertex 21.29060471 -2.251653465 18.80211186 
  endloop
 endfacet
 facet normal 0.000000 0.000000 -0.002853
  outer loop
   vertex 21.29060471 -2.251653465 18.80211186 
   vertex 21.21915821 -2.212741917 18.80211563 
   vertex 21.29060659 -2.212741917 18.80211563 
  endloop
 endfacet
 facet normal 0.000000 0.000000 0.002852
  outer loop
   vertex 21.21915821 -2.212741917 18.70742228 
   vertex 21.21915632 -2.251643344 18.70742228 
   vertex 21.29060659 -2.212741917 18.70742228 
  endloop
 endfacet
 facet normal 0.000000 0.000000 0.002853
  outer loop
   vertex 21.29060659 -2.212741917 18.70742228 
   vertex 21.21915632 -2.251643344 18.70742228 
   vertex 21.29060471 -2.251653465 18.70742228 
  endloop
 endfacet
 facet normal -0.000000 0.000000 -0.002384
  outer loop
   vertex 21.21914691 -2.284166762 18.80211186 
   vertex 21.21915632 -2.251643344 18.80211186 
   vertex 21.29059529 -2.283751337 18.80211186 
  endloop
 endfacet
 facet normal 0.000000 0.000000 -0.002353
  outer loop
   vertex 21.29059529 -2.283751337 18.80211186 
   vertex 21.21915632 -2.251643344 18.80211186 
   vertex 21.29060471 -2.251653465 18.80211186 
  endloop
 endfacet
 facet normal 0.000000 0.000000 0.002384
  outer loop
   vertex 21.21914691 -2.284166762 18.70742228 
   vertex 21.29059529 -2.283751337 18.70742228 
   vertex 21.21915632 -2.251643344 18.70742228 
  endloop
 endfacet
 facet normal 0.000000 0.000000 0.002353
  outer loop
   vertex 21.21915632 -2.251643344 18.70742228 
   vertex 21.29059529 -2.283751337 18.70742228 
   vertex 21.29060471 -2.251653465 18.70742228 
  endloop
 endfacet
 facet normal -0.000000 0.000000 -0.006876
  outer loop
   vertex 21.21914879 -2.107002032 18.80210245 
   vertex 21.21914879 -2.013216499 18.80210245 
   vertex 21.29059906 -2.106995912 18.80210245 
  endloop
 endfacet
 facet normal 0.000000 0.000000 -0.006875
  outer loop
   vertex 21.29059906 -2.106995912 18.80210245 
   vertex 21.21914879 -2.013216499 18.80210245 
   vertex 21.29059906 -2.013216499 18.80210245 
  endloop
 endfacet
 facet normal 0.000000 -0.006942 0.000000
  outer loop
   vertex 21.21914879 -2.013216499 18.80210245 
   vertex 21.21914879 -2.013216499 18.70741663 
   vertex 21.29059906 -2.013216499 18.80210245 
  endloop
 endfacet
 facet normal 0.000000 -0.006942 0.000000
  outer loop
   vertex 21.29059906 -2.013216499 18.80210245 
   vertex 21.21914879 -2.013216499 18.70741663 
   vertex 21.29059906 -2.013216499 18.70741663 
  endloop
 endfacet
 facet normal 0.000000 0.000000 0.006876
  outer loop
   vertex 21.21914879 -2.013216499 18.70741663 
   vertex 21.21914879 -2.107002032 18.70741663 
   vertex 21.29059906 -2.013216499 18.70741663 
  endloop
 endfacet
 facet normal 0.000000 0.000000 0.006875
  outer loop
   vertex 21.29059906 -2.013216499 18.70741663 
   vertex 21.21914879 -2.107002032 18.70741663 
   vertex 21.29059906 -2.106995912 18.70741663 
  endloop
 endfacet
 facet normal 0.000000 0.000000 0.000236
  outer loop
   vertex 20.31998188 -2.107002032 18.70742228 
   vertex 20.31998188 -2.121550613 18.70742228 
   vertex 20.33576662 -2.107002032 18.70742228 
  endloop
 endfacet
 facet normal 0.000000 0.000000 0.000236
  outer loop
   vertex 20.31998188 -2.318486275 18.70742228 
   vertex 20.33576662 -2.318486275 18.70742228 
   vertex 20.31998188 -2.303933928 18.70742228 
  endloop
 endfacet
 facet normal 0.000000 0.000000 0.000236
  outer loop
   vertex 21.21914879 -2.107002032 18.70741663 
   vertex 21.2033264 -2.107002032 18.70742228 
   vertex 21.21915444 -2.121550613 18.70742228 
  endloop
 endfacet
 facet normal 0.000000 -0.000000 0.000227
  outer loop
   vertex 21.21853495 -2.318486275 18.70741663 
   vertex 21.21938228 -2.303933928 18.70742228 
   vertex 21.2033264 -2.318486275 18.70742228 
  endloop
 endfacet
 facet normal -0.000000 0.000000 0.000319
  outer loop
   vertex 20.31998188 -2.121550613 18.70742228 
   vertex 20.3199028 -2.14132178 18.70742228 
   vertex 20.33576662 -2.107002032 18.70742228 
  endloop
 endfacet
 facet normal 0.000000 0.000000 0.001492
  outer loop
   vertex 20.33576662 -2.107002032 18.70742228 
   vertex 20.3199028 -2.14132178 18.70742228 
   vertex 20.37814043 -2.107002032 18.70742228 
  endloop
 endfacet
 facet normal 0.000000 0.000000 0.001943
  outer loop
   vertex 20.3199028 -2.14132178 18.70742228 
   vertex 20.3199028 -2.173844257 18.70742228 
   vertex 20.37814043 -2.107002032 18.70742228 
  endloop
 endfacet
 facet normal -0.000000 0.000000 0.000319
  outer loop
   vertex 20.31998188 -2.303933928 18.70742228 
   vertex 20.33576662 -2.318486275 18.70742228 
   vertex 20.3199028 -2.284166762 18.70742228 
  endloop
 endfacet
 facet normal 0.000000 0.000000 0.001492
  outer loop
   vertex 20.33576662 -2.318486275 18.70742228 
   vertex 20.37814043 -2.318486275 18.70742228 
   vertex 20.3199028 -2.284166762 18.70742228 
  endloop
 endfacet
 facet normal 0.000000 0.000000 0.001943
  outer loop
   vertex 20.3199028 -2.284166762 18.70742228 
   vertex 20.37814043 -2.318486275 18.70742228 
   vertex 20.3199028 -2.251643344 18.70742228 
  endloop
 endfacet
 facet normal 0.000000 0.000000 0.005769
  outer loop
   vertex 20.37814043 -2.318486275 18.70742228 
   vertex 20.46225727 -2.318486275 18.70742228 
   vertex 20.3199028 -2.251643344 18.70742228 
  endloop
 endfacet
 facet normal -0.000000 0.000000 0.005682
  outer loop
   vertex 20.3199028 -2.251643344 18.70742228 
   vertex 20.46225727 -2.318486275 18.70742228 
   vertex 20.31990092 -2.212741917 18.70742228 
  endloop
 endfacet
 facet normal 0.000000 0.000000 0.005682
  outer loop
   vertex 20.31990092 -2.212741917 18.70742228 
   vertex 20.46225727 -2.318486275 18.70742228 
   vertex 20.3199028 -2.173844257 18.70742228 
  endloop
 endfacet
 facet normal -0.000000 0.000000 0.018407
  outer loop
   vertex 20.3199028 -2.173844257 18.70742228 
   vertex 20.46225727 -2.318486275 18.70742228 
   vertex 20.37814043 -2.107002032 18.70742228 
  endloop
 endfacet
 facet normal 0.000000 0.000000 0.018253
  outer loop
   vertex 20.37814043 -2.107002032 18.70742228 
   vertex 20.46225727 -2.318486275 18.70742228 
   vertex 20.46225727 -2.107002032 18.70742228 
  endloop
 endfacet
 facet normal 0.000000 0.000000 0.030324
  outer loop
   vertex 20.46225727 -2.318486275 18.70742228 
   vertex 20.60199634 -2.318486275 18.70742228 
   vertex 20.46225727 -2.107002032 18.70742228 
  endloop
 endfacet
 facet normal 0.000000 0.000000 0.030324
  outer loop
   vertex 20.46225727 -2.107002032 18.70742228 
   vertex 20.60199634 -2.318486275 18.70742228 
   vertex 20.60199634 -2.107002032 18.70742228 
  endloop
 endfacet
 facet normal 0.000000 0.000000 0.036359
  outer loop
   vertex 20.60199634 -2.318486275 18.70742228 
   vertex 20.76954651 -2.318486275 18.70742228 
   vertex 20.60199634 -2.107002032 18.70742228 
  endloop
 endfacet
 facet normal 0.000000 0.000000 0.036359
  outer loop
   vertex 20.60199634 -2.107002032 18.70742228 
   vertex 20.76954651 -2.318486275 18.70742228 
   vertex 20.76954651 -2.107002032 18.70742228 
  endloop
 endfacet
 facet normal 0.000000 0.000000 0.036359
  outer loop
   vertex 20.76954651 -2.318486275 18.70742228 
   vertex 20.93709668 -2.318486275 18.70742228 
   vertex 20.76954651 -2.107002032 18.70742228 
  endloop
 endfacet
 facet normal 0.000000 0.000000 0.036359
  outer loop
   vertex 20.76954651 -2.107002032 18.70742228 
   vertex 20.93709668 -2.318486275 18.70742228 
   vertex 20.93709668 -2.107002032 18.70742228 
  endloop
 endfacet
 facet normal 0.000000 0.000000 0.030324
  outer loop
   vertex 20.93709668 -2.318486275 18.70742228 
   vertex 21.07683574 -2.318486275 18.70742228 
   vertex 20.93709668 -2.107002032 18.70742228 
  endloop
 endfacet
 facet normal 0.000000 0.000000 0.030324
  outer loop
   vertex 20.93709668 -2.107002032 18.70742228 
   vertex 21.07683574 -2.318486275 18.70742228 
   vertex 21.07683574 -2.107002032 18.70742228 
  endloop
 endfacet
 facet normal 0.000000 0.000000 0.018253
  outer loop
   vertex 21.07683574 -2.318486275 18.70742228 
   vertex 21.16095258 -2.318486275 18.70742228 
   vertex 21.07683574 -2.107002032 18.70742228 
  endloop
 endfacet
 facet normal 0.000000 0.000000 0.018253
  outer loop
   vertex 21.07683574 -2.107002032 18.70742228 
   vertex 21.16095258 -2.318486275 18.70742228 
   vertex 21.16095258 -2.107002032 18.70742228 
  endloop
 endfacet
 facet normal 0.000000 0.000000 0.009195
  outer loop
   vertex 21.16095258 -2.318486275 18.70742228 
   vertex 21.2033264 -2.318486275 18.70742228 
   vertex 21.16095258 -2.107002032 18.70742228 
  endloop
 endfacet
 facet normal 0.000000 0.000000 0.004117
  outer loop
   vertex 21.2033264 -2.318486275 18.70742228 
   vertex 21.21938228 -2.303933928 18.70742228 
   vertex 21.16095258 -2.107002032 18.70742228 
  endloop
 endfacet
 facet normal 0.000000 0.000000 0.001138
  outer loop
   vertex 21.21938228 -2.303933928 18.70742228 
   vertex 21.21914691 -2.284166762 18.70742228 
   vertex 21.16095258 -2.107002032 18.70742228 
  endloop
 endfacet
 facet normal -0.000000 0.000000 0.001944
  outer loop
   vertex 21.21914691 -2.284166762 18.70742228 
   vertex 21.21915632 -2.251643344 18.70742228 
   vertex 21.16095258 -2.107002032 18.70742228 
  endloop
 endfacet
 facet normal 0.000000 0.000000 0.002324
  outer loop
   vertex 21.21915632 -2.251643344 18.70742228 
   vertex 21.21915821 -2.212741917 18.70742228 
   vertex 21.16095258 -2.107002032 18.70742228 
  endloop
 endfacet
 facet normal 0.000000 0.000000 0.002323
  outer loop
   vertex 21.21915821 -2.212741917 18.70742228 
   vertex 21.21915632 -2.173844257 18.70742228 
   vertex 21.16095258 -2.107002032 18.70742228 
  endloop
 endfacet
 facet normal 0.000000 0.000000 0.001942
  outer loop
   vertex 21.21915632 -2.173844257 18.70742228 
   vertex 21.21914691 -2.14132178 18.70742228 
   vertex 21.16095258 -2.107002032 18.70742228 
  endloop
 endfacet
 facet normal 0.000000 0.000000 0.001181
  outer loop
   vertex 21.21914691 -2.14132178 18.70742228 
   vertex 21.21915444 -2.121550613 18.70742228 
   vertex 21.16095258 -2.107002032 18.70742228 
  endloop
 endfacet
 facet normal 0.000000 0.000000 0.000633
  outer loop
   vertex 21.21915444 -2.121550613 18.70742228 
   vertex 21.2033264 -2.107002032 18.70742228 
   vertex 21.16095258 -2.107002032 18.70742228 
  endloop
 endfacet
 facet normal 0.000000 -0.001963 0.000000
  outer loop
   vertex 20.31998188 -2.013216499 18.80211375 
   vertex 20.33576662 -2.013216499 18.80211186 
   vertex 20.31998188 -2.013216499 18.92332086 
  endloop
 endfacet
 facet normal 0.000000 -0.001963 0.000000
  outer loop
   vertex 20.31998188 -2.013216499 18.92332086 
   vertex 20.33576662 -2.013216499 18.80211186 
   vertex 20.33576662 -2.013216499 18.92332086 
  endloop
 endfacet
 facet normal 0.000000 -0.005270 0.000000
  outer loop
   vertex 20.33576662 -2.013216499 18.80211186 
   vertex 20.37814043 -2.013216499 18.80211563 
   vertex 20.33576662 -2.013216499 18.92332086 
  endloop
 endfacet
 facet normal 0.000000 -0.005270 0.000000
  outer loop
   vertex 20.33576662 -2.013216499 18.92332086 
   vertex 20.37814043 -2.013216499 18.80211563 
   vertex 20.37814043 -2.013216499 18.92332274 
  endloop
 endfacet
 facet normal 0.000000 -0.010462 0.000000
  outer loop
   vertex 20.37814043 -2.013216499 18.80211563 
   vertex 20.46225727 -2.013216499 18.80211186 
   vertex 20.37814043 -2.013216499 18.92332274 
  endloop
 endfacet
 facet normal 0.000000 -0.010461 0.000000
  outer loop
   vertex 20.37814043 -2.013216499 18.92332274 
   vertex 20.46225727 -2.013216499 18.80211186 
   vertex 20.46225727 -2.013216499 18.92332086 
  endloop
 endfacet
 facet normal 0.000000 -0.020839 0.000000
  outer loop
   vertex 20.60199634 -2.013216499 18.80211186 
   vertex 20.76954651 -2.013216499 18.80211563 
   vertex 20.60199634 -2.013216499 18.9233265 
  endloop
 endfacet
 facet normal 0.000000 -0.020839 0.000000
  outer loop
   vertex 20.60199634 -2.013216499 18.9233265 
   vertex 20.76954651 -2.013216499 18.80211563 
   vertex 20.76954651 -2.013216499 18.9233265 
  endloop
 endfacet
 facet normal 0.000000 -0.017379 0.000000
  outer loop
   vertex 20.46225727 -2.013216499 18.80211186 
   vertex 20.60199634 -2.013216499 18.80211186 
   vertex 20.46225727 -2.013216499 18.92332086 
  endloop
 endfacet
 facet normal 0.000000 -0.017381 0.000000
  outer loop
   vertex 20.46225727 -2.013216499 18.92332086 
   vertex 20.60199634 -2.013216499 18.80211186 
   vertex 20.60199634 -2.013216499 18.9233265 
  endloop
 endfacet
 facet normal 0.000000 -0.020839 0.000000
  outer loop
   vertex 20.76954651 -2.013216499 18.80211563 
   vertex 20.93709668 -2.013216499 18.80211186 
   vertex 20.76954651 -2.013216499 18.9233265 
  endloop
 endfacet
 facet normal 0.000000 -0.020839 0.000000
  outer loop
   vertex 20.76954651 -2.013216499 18.9233265 
   vertex 20.93709668 -2.013216499 18.80211186 
   vertex 20.93709668 -2.013216499 18.9233265 
  endloop
 endfacet
 facet normal 0.000000 -0.017381 0.000000
  outer loop
   vertex 20.93709668 -2.013216499 18.80211186 
   vertex 21.07683574 -2.013216499 18.80211186 
   vertex 20.93709668 -2.013216499 18.9233265 
  endloop
 endfacet
 facet normal 0.000000 -0.017380 0.000000
  outer loop
   vertex 20.93709668 -2.013216499 18.9233265 
   vertex 21.07683574 -2.013216499 18.80211186 
   vertex 21.07683574 -2.013216499 18.9233265 
  endloop
 endfacet
 facet normal 0.000000 -0.010462 0.000000
  outer loop
   vertex 21.07683574 -2.013216499 18.80211186 
   vertex 21.16095258 -2.013216499 18.80211563 
   vertex 21.07683574 -2.013216499 18.9233265 
  endloop
 endfacet
 facet normal 0.000000 -0.010462 0.000000
  outer loop
   vertex 21.07683574 -2.013216499 18.9233265 
   vertex 21.16095258 -2.013216499 18.80211563 
   vertex 21.16095258 -2.013216499 18.9233265 
  endloop
 endfacet
 facet normal 0.000000 -0.005270 0.000000
  outer loop
   vertex 21.16095258 -2.013216499 18.80211563 
   vertex 21.2033264 -2.013216499 18.80211186 
   vertex 21.16095258 -2.013216499 18.9233265 
  endloop
 endfacet
 facet normal 0.000000 -0.005270 0.000000
  outer loop
   vertex 21.16095258 -2.013216499 18.9233265 
   vertex 21.2033264 -2.013216499 18.80211186 
   vertex 21.2033264 -2.013216499 18.9233265 
  endloop
 endfacet
 facet normal 0.000000 -0.001968 0.000000
  outer loop
   vertex 21.2033264 -2.013216499 18.80211186 
   vertex 21.21914879 -2.013216499 18.80210245 
   vertex 21.2033264 -2.013216499 18.9233265 
  endloop
 endfacet
 facet normal 0.000000 -0.001968 0.000000
  outer loop
   vertex 21.2033264 -2.013216499 18.9233265 
   vertex 21.21914879 -2.013216499 18.80210245 
   vertex 21.21914879 -2.013216499 18.92331144 
  endloop
 endfacet
 facet normal 0.011664 -0.000005 0.000000
  outer loop
   vertex 20.31998188 -2.013216499 18.92332086 
   vertex 20.31994046 -2.107002032 18.89361738 
   vertex 20.31998188 -2.013216499 18.80211375 
  endloop
 endfacet
 facet normal 0.008805 0.000000 0.000004
  outer loop
   vertex 20.31998188 -2.013216499 18.80211375 
   vertex 20.31994046 -2.107002032 18.89361738 
   vertex 20.31998188 -2.107002032 18.80211751 
  endloop
 endfacet
 facet normal -0.011664 -0.000000 0.000000
  outer loop
   vertex 21.21914879 -2.013216499 18.92331144 
   vertex 21.21914879 -2.013216499 18.80210245 
   vertex 21.21915256 -2.107002032 18.89360985 
  endloop
 endfacet
 facet normal -0.008806 0.000000 0.000000
  outer loop
   vertex 21.21915256 -2.107002032 18.89360985 
   vertex 21.21914879 -2.013216499 18.80210245 
   vertex 21.21914879 -2.107002032 18.80210245 
  endloop
 endfacet
endsolid
