solid
 facet normal -0.741761 0.670665 0.000000
  outer loop
   vertex 16.57671187 11.50984099 12.9870863 
   vertex 16.57671187 11.50984099 14.37636662 
   vertex 16.8961756 11.86317386 12.9870863 
  endloop
 endfacet
 facet normal -0.741766 0.670658 0.000000
  outer loop
   vertex 16.8961756 11.86317386 12.9870863 
   vertex 16.57671187 11.50984099 14.37636662 
   vertex 16.8961756 11.86317386 14.37636662 
  endloop
 endfacet
 facet normal 1.000000 0.000000 0.000000
  outer loop
   vertex 16.28062269 11.50984099 12.9870863 
   vertex 16.28062269 11.86317386 12.9870863 
   vertex 16.28062269 11.50984099 14.37636662 
  endloop
 endfacet
 facet normal 1.000000 0.000000 0.000000
  outer loop
   vertex 16.28062269 11.50984099 14.37636662 
   vertex 16.28062269 11.86317386 12.9870863 
   vertex 16.28062269 11.86317386 14.37636662 
  endloop
 endfacet
 facet normal 0.000000 1.000000 0.000000
  outer loop
   vertex 16.28062269 11.50984099 12.9870863 
   vertex 16.28062269 11.50984099 14.37636662 
   vertex 16.4535887 11.50984099 12.9870863 
  endloop
 endfacet
 facet normal 0.000000 1.000000 0.000000
  outer loop
   vertex 16.4535887 11.50984099 12.9870863 
   vertex 16.28062269 11.50984099 14.37636662 
   vertex 16.4535887 11.50984099 14.37636662 
  endloop
 endfacet
 facet normal 0.000000 0.000000 -1.000000
  outer loop
   vertex 16.28062269 11.50984099 14.37636662 
   vertex 16.28062269 11.86317386 14.37636662 
   vertex 16.4535887 11.50984099 14.37636662 
  endloop
 endfacet
 facet normal 0.000000 0.000000 -1.000000
  outer loop
   vertex 16.4535887 11.50984099 14.37636662 
   vertex 16.28062269 11.86317386 14.37636662 
   vertex 16.4535887 11.86317386 14.37636662 
  endloop
 endfacet
 facet normal 0.000000 -1.000000 0.000000
  outer loop
   vertex 16.28062269 11.86317386 14.37636662 
   vertex 16.28062269 11.86317386 12.9870863 
   vertex 16.4535887 11.86317386 14.37636662 
  endloop
 endfacet
 facet normal 0.000000 -1.000000 0.000000
  outer loop
   vertex 16.4535887 11.86317386 14.37636662 
   vertex 16.28062269 11.86317386 12.9870863 
   vertex 16.4535887 11.86317386 12.9870863 
  endloop
 endfacet
 facet normal 0.000000 0.000000 1.000000
  outer loop
   vertex 16.28062269 11.86317386 12.9870863 
   vertex 16.28062269 11.50984099 12.9870863 
   vertex 16.4535887 11.86317386 12.9870863 
  endloop
 endfacet
 facet normal 0.000000 0.000000 1.000000
  outer loop
   vertex 16.4535887 11.86317386 12.9870863 
   vertex 16.28062269 11.50984099 12.9870863 
   vertex 16.4535887 11.50984099 12.9870863 
  endloop
 endfacet
 facet normal 0.000000 1.000000 0.000000
  outer loop
   vertex 16.4535887 11.50984099 12.9870863 
   vertex 16.4535887 11.50984099 14.37636662 
   vertex 16.57671187 11.50984099 12.9870863 
  endloop
 endfacet
 facet normal 0.000000 1.000000 0.000000
  outer loop
   vertex 16.57671187 11.50984099 12.9870863 
   vertex 16.4535887 11.50984099 14.37636662 
   vertex 16.57671187 11.50984099 14.37636662 
  endloop
 endfacet
 facet normal 0.000000 0.000000 -1.000000
  outer loop
   vertex 16.4535887 11.50984099 14.37636662 
   vertex 16.4535887 11.86317386 14.37636662 
   vertex 16.57671187 11.50984099 14.37636662 
  endloop
 endfacet
 facet normal 0.000000 0.000000 -1.000000
  outer loop
   vertex 16.57671187 11.50984099 14.37636662 
   vertex 16.4535887 11.86317386 14.37636662 
   vertex 16.8961756 11.86317386 14.37636662 
  endloop
 endfacet
 facet normal 0.000000 -1.000000 0.000000
  outer loop
   vertex 16.4535887 12.51450696 13.30050659 
   vertex 16.4535887 12.51450696 12.9870863 
   vertex 16.8961756 12.51450696 13.30050659 
  endloop
 endfacet
 facet normal 0.000000 -1.000000 0.000000
  outer loop
   vertex 16.8961756 12.51450696 13.30050659 
   vertex 16.4535887 12.51450696 12.9870863 
   vertex 16.8961756 12.51450696 12.9870863 
  endloop
 endfacet
 facet normal 0.000000 0.000000 1.000000
  outer loop
   vertex 16.4535887 11.50984099 12.9870863 
   vertex 16.57671187 11.50984099 12.9870863 
   vertex 16.4535887 11.86317386 12.9870863 
  endloop
 endfacet
 facet normal 0.000000 0.000000 1.000000
  outer loop
   vertex 16.4535887 11.86317386 12.9870863 
   vertex 16.57671187 11.50984099 12.9870863 
   vertex 16.8961756 11.86317386 12.9870863 
  endloop
 endfacet
 facet normal 1.000000 0.000000 0.000000
  outer loop
   vertex 16.4535887 11.86317386 14.37636662 
   vertex 16.4535887 11.86317386 12.9870863 
   vertex 16.4535887 12.51450696 13.30050659 
  endloop
 endfacet
 facet normal 1.000000 0.000000 0.000000
  outer loop
   vertex 16.4535887 12.51450696 13.30050659 
   vertex 16.4535887 11.86317386 12.9870863 
   vertex 16.4535887 12.51450696 12.9870863 
  endloop
 endfacet
 facet normal 0.000000 0.000000 1.000000
  outer loop
   vertex 16.4535887 12.25882401 12.56766701 
   vertex 16.8961756 12.25882401 12.56766701 
   vertex 16.4535887 12.51450696 12.56766701 
  endloop
 endfacet
 facet normal 0.000000 0.000000 1.000000
  outer loop
   vertex 16.4535887 12.51450696 12.56766701 
   vertex 16.8961756 12.25882401 12.56766701 
   vertex 16.8961756 12.51450696 12.56766701 
  endloop
 endfacet
 facet normal -1.000000 0.000000 0.000000
  outer loop
   vertex 16.8961756 11.86317386 14.37636662 
   vertex 16.8961756 12.51450696 13.30050659 
   vertex 16.8961756 11.86317386 12.9870863 
  endloop
 endfacet
 facet normal -1.000000 0.000000 0.000000
  outer loop
   vertex 16.8961756 11.86317386 12.9870863 
   vertex 16.8961756 12.51450696 13.30050659 
   vertex 16.8961756 12.51450696 12.9870863 
  endloop
 endfacet
 facet normal 0.000000 -0.855446 -0.517892
  outer loop
   vertex 16.8961756 11.86317386 14.37636662 
   vertex 16.4535887 11.86317386 14.37636662 
   vertex 16.8961756 12.51450696 13.30050659 
  endloop
 endfacet
 facet normal 0.000000 -0.855446 -0.517893
  outer loop
   vertex 16.8961756 12.51450696 13.30050659 
   vertex 16.4535887 11.86317386 14.37636662 
   vertex 16.4535887 12.51450696 13.30050659 
  endloop
 endfacet
 facet normal 0.000000 0.818848 0.574011
  outer loop
   vertex 16.4535887 11.86317386 12.9870863 
   vertex 16.8961756 11.86317386 12.9870863 
   vertex 16.4535887 11.95185389 12.8605814 
  endloop
 endfacet
 facet normal 0.000000 0.818847 0.574012
  outer loop
   vertex 16.4535887 11.95185389 12.8605814 
   vertex 16.8961756 11.86317386 12.9870863 
   vertex 16.8961756 11.95185389 12.8605814 
  endloop
 endfacet
 facet normal -1.000000 0.000000 0.000000
  outer loop
   vertex 16.8961756 11.86317386 12.9870863 
   vertex 16.8961756 12.51450696 12.9870863 
   vertex 16.8961756 11.95185389 12.8605814 
  endloop
 endfacet
 facet normal -1.000000 0.000000 0.000000
  outer loop
   vertex 16.8961756 11.95185389 12.8605814 
   vertex 16.8961756 12.51450696 12.9870863 
   vertex 16.8961756 12.51450696 12.8605814 
  endloop
 endfacet
 facet normal 0.000000 -1.000000 0.000000
  outer loop
   vertex 16.8961756 12.59682097 12.9870863 
   vertex 16.4535887 12.59682097 12.9870863 
   vertex 16.8961756 12.59682097 12.8605814 
  endloop
 endfacet
 facet normal 0.000000 -1.000000 0.000000
  outer loop
   vertex 16.8961756 12.59682097 12.8605814 
   vertex 16.4535887 12.59682097 12.9870863 
   vertex 16.4535887 12.59682097 12.8605814 
  endloop
 endfacet
 facet normal 1.000000 0.000000 0.000000
  outer loop
   vertex 16.4535887 11.86317386 12.9870863 
   vertex 16.4535887 11.95185389 12.8605814 
   vertex 16.4535887 12.51450696 12.9870863 
  endloop
 endfacet
 facet normal 1.000000 0.000000 0.000000
  outer loop
   vertex 16.4535887 12.51450696 12.9870863 
   vertex 16.4535887 11.95185389 12.8605814 
   vertex 16.4535887 12.51450696 12.8605814 
  endloop
 endfacet
 facet normal 0.000000 0.724134 0.689660
  outer loop
   vertex 16.4535887 11.95185389 12.8605814 
   vertex 16.8961756 11.95185389 12.8605814 
   vertex 16.4535887 12.071916 12.73451805 
  endloop
 endfacet
 facet normal 0.000000 0.724132 0.689661
  outer loop
   vertex 16.4535887 12.071916 12.73451805 
   vertex 16.8961756 11.95185389 12.8605814 
   vertex 16.8961756 12.071916 12.73451805 
  endloop
 endfacet
 facet normal -1.000000 0.000000 0.000000
  outer loop
   vertex 16.8961756 11.95185389 12.8605814 
   vertex 16.8961756 12.51450696 12.8605814 
   vertex 16.8961756 12.071916 12.73451805 
  endloop
 endfacet
 facet normal -1.000000 0.000000 0.000000
  outer loop
   vertex 16.8961756 12.071916 12.73451805 
   vertex 16.8961756 12.51450696 12.8605814 
   vertex 16.8961756 12.51450696 12.73451805 
  endloop
 endfacet
 facet normal 0.000000 -1.000000 0.000000
  outer loop
   vertex 16.8961756 12.51450696 12.8605814 
   vertex 16.4535887 12.51450696 12.8605814 
   vertex 16.8961756 12.51450696 12.73451805 
  endloop
 endfacet
 facet normal 0.000000 -1.000000 0.000000
  outer loop
   vertex 16.8961756 12.51450696 12.73451805 
   vertex 16.4535887 12.51450696 12.8605814 
   vertex 16.4535887 12.51450696 12.73451805 
  endloop
 endfacet
 facet normal 1.000000 0.000000 0.000000
  outer loop
   vertex 16.4535887 11.95185389 12.8605814 
   vertex 16.4535887 12.071916 12.73451805 
   vertex 16.4535887 12.51450696 12.8605814 
  endloop
 endfacet
 facet normal 1.000000 0.000000 0.000000
  outer loop
   vertex 16.4535887 12.51450696 12.8605814 
   vertex 16.4535887 12.071916 12.73451805 
   vertex 16.4535887 12.51450696 12.73451805 
  endloop
 endfacet
 facet normal 0.000000 0.665950 0.745996
  outer loop
   vertex 16.4535887 12.071916 12.73451805 
   vertex 16.8961756 12.071916 12.73451805 
   vertex 16.4535887 12.25882401 12.56766701 
  endloop
 endfacet
 facet normal 0.000000 0.665943 0.746003
  outer loop
   vertex 16.4535887 12.25882401 12.56766701 
   vertex 16.8961756 12.071916 12.73451805 
   vertex 16.8961756 12.25882401 12.56766701 
  endloop
 endfacet
 facet normal -1.000000 0.000000 0.000000
  outer loop
   vertex 16.8961756 12.071916 12.73451805 
   vertex 16.8961756 12.51450696 12.73451805 
   vertex 16.8961756 12.25882401 12.56766701 
  endloop
 endfacet
 facet normal -1.000000 0.000000 0.000000
  outer loop
   vertex 16.8961756 12.25882401 12.56766701 
   vertex 16.8961756 12.51450696 12.73451805 
   vertex 16.8961756 12.51450696 12.56766701 
  endloop
 endfacet
 facet normal 0.000000 -1.000000 0.000000
  outer loop
   vertex 16.8961756 12.51450696 12.73451805 
   vertex 16.4535887 12.51450696 12.73451805 
   vertex 16.8961756 12.51450696 12.56766701 
  endloop
 endfacet
 facet normal 0.000000 -1.000000 0.000000
  outer loop
   vertex 16.8961756 12.51450696 12.56766701 
   vertex 16.4535887 12.51450696 12.73451805 
   vertex 16.4535887 12.51450696 12.56766701 
  endloop
 endfacet
 facet normal 1.000000 0.000000 0.000000
  outer loop
   vertex 16.4535887 12.071916 12.73451805 
   vertex 16.4535887 12.25882401 12.56766701 
   vertex 16.4535887 12.51450696 12.73451805 
  endloop
 endfacet
 facet normal 1.000000 0.000000 0.000000
  outer loop
   vertex 16.4535887 12.51450696 12.73451805 
   vertex 16.4535887 12.25882401 12.56766701 
   vertex 16.4535887 12.51450696 12.56766701 
  endloop
 endfacet
 facet normal 0.000000 0.000000 -1.000000
  outer loop
   vertex 16.8961756 12.51450696 12.9870863 
   vertex 16.4535887 12.51450696 12.9870863 
   vertex 16.8961756 12.59682097 12.9870863 
  endloop
 endfacet
 facet normal 0.000000 0.000000 -1.000000
  outer loop
   vertex 16.8961756 12.59682097 12.9870863 
   vertex 16.4535887 12.51450696 12.9870863 
   vertex 16.4535887 12.59682097 12.9870863 
  endloop
 endfacet
 facet normal 1.000000 0.000000 0.000000
  outer loop
   vertex 16.4535887 12.51450696 12.9870863 
   vertex 16.4535887 12.51450696 12.8605814 
   vertex 16.4535887 12.59682097 12.9870863 
  endloop
 endfacet
 facet normal 1.000000 0.000000 0.000000
  outer loop
   vertex 16.4535887 12.59682097 12.9870863 
   vertex 16.4535887 12.51450696 12.8605814 
   vertex 16.4535887 12.59682097 12.8605814 
  endloop
 endfacet
 facet normal 0.000000 0.000000 1.000000
  outer loop
   vertex 16.4535887 12.51450696 12.8605814 
   vertex 16.8961756 12.51450696 12.8605814 
   vertex 16.4535887 12.59682097 12.8605814 
  endloop
 endfacet
 facet normal 0.000000 0.000000 1.000000
  outer loop
   vertex 16.4535887 12.59682097 12.8605814 
   vertex 16.8961756 12.51450696 12.8605814 
   vertex 16.8961756 12.59682097 12.8605814 
  endloop
 endfacet
 facet normal -1.000000 0.000000 0.000000
  outer loop
   vertex 16.8961756 12.51450696 12.8605814 
   vertex 16.8961756 12.51450696 12.9870863 
   vertex 16.8961756 12.59682097 12.8605814 
  endloop
 endfacet
 facet normal -1.000000 0.000000 0.000000
  outer loop
   vertex 16.8961756 12.59682097 12.8605814 
   vertex 16.8961756 12.51450696 12.9870863 
   vertex 16.8961756 12.59682097 12.9870863 
  endloop
 endfacet
endsolid
