solid
 facet normal 0.000001 0.000000 -0.522914
  outer loop
   vertex 17.0030492 -3.022933076 18.43239247 
   vertex 17.0030492 -2.740651784 18.43239247 
   vertex 18.83852965 -3.022933076 18.43239437 
  endloop
 endfacet
 facet normal 0.000000 -0.000004 -0.522916
  outer loop
   vertex 18.83852965 -3.022933076 18.43239437 
   vertex 17.0030492 -2.740651784 18.43239247 
   vertex 18.83852965 -2.740651784 18.43239247 
  endloop
 endfacet
 facet normal -0.000001 0.000000 -0.522914
  outer loop
   vertex 20.6740101 -3.022933076 18.43239247 
   vertex 18.83852965 -3.022933076 18.43239437 
   vertex 20.6740101 -2.740651784 18.43239247 
  endloop
 endfacet
 facet normal 0.000000 -0.000004 -0.522916
  outer loop
   vertex 20.6740101 -2.740651784 18.43239247 
   vertex 18.83852965 -3.022933076 18.43239437 
   vertex 18.83852965 -2.740651784 18.43239247 
  endloop
 endfacet
 facet normal -0.000001 0.000000 0.522914
  outer loop
   vertex 17.0030492 -3.022933076 18.75197792 
   vertex 18.83852965 -3.022933076 18.75197982 
   vertex 17.0030492 -2.740651784 18.75197792 
  endloop
 endfacet
 facet normal 0.000000 0.000004 0.522916
  outer loop
   vertex 18.83852965 -3.022933076 18.75197982 
   vertex 18.83852965 -2.740651784 18.75197792 
   vertex 17.0030492 -2.740651784 18.75197792 
  endloop
 endfacet
 facet normal 0.000001 0.000000 0.522914
  outer loop
   vertex 20.6740101 -3.022933076 18.75197792 
   vertex 20.6740101 -2.740651784 18.75197792 
   vertex 18.83852965 -3.022933076 18.75197982 
  endloop
 endfacet
 facet normal 0.000000 0.000004 0.522916
  outer loop
   vertex 20.6740101 -2.740651784 18.75197792 
   vertex 18.83852965 -2.740651784 18.75197792 
   vertex 18.83852965 -3.022933076 18.75197982 
  endloop
 endfacet
 facet normal -0.028846 0.000000 0.000000
  outer loop
   vertex 17.0030492 -3.022933076 18.75197792 
   vertex 17.0030492 -2.740651784 18.75197792 
   vertex 17.0030492 -3.022933076 18.65072815 
  endloop
 endfacet
 facet normal -0.030856 -0.000000 0.000000
  outer loop
   vertex 17.0030492 -3.022933076 18.65072815 
   vertex 17.0030492 -2.740651784 18.75197792 
   vertex 17.0030492 -2.740651784 18.6436692 
  endloop
 endfacet
 facet normal 0.000000 -0.187561 0.000000
  outer loop
   vertex 18.83852965 -3.022933076 18.75197982 
   vertex 17.0030492 -3.022933076 18.75197792 
   vertex 18.83852965 -3.022933076 18.65073005 
  endloop
 endfacet
 facet normal 0.000000 -0.187561 0.000000
  outer loop
   vertex 18.83852965 -3.022933076 18.65073005 
   vertex 17.0030492 -3.022933076 18.75197792 
   vertex 17.0030492 -3.022933076 18.65072815 
  endloop
 endfacet
 facet normal 0.000000 0.200637 0.000000
  outer loop
   vertex 17.0030492 -2.740651784 18.75197792 
   vertex 18.83852965 -2.740651784 18.75197792 
   vertex 17.0030492 -2.740651784 18.6436692 
  endloop
 endfacet
 facet normal 0.000000 0.200638 0.000000
  outer loop
   vertex 17.0030492 -2.740651784 18.6436692 
   vertex 18.83852965 -2.740651784 18.75197792 
   vertex 18.83852965 -2.740651784 18.6436692 
  endloop
 endfacet
 facet normal 0.000000 -0.187561 0.000000
  outer loop
   vertex 20.6740101 -3.022933076 18.75197792 
   vertex 18.83852965 -3.022933076 18.75197982 
   vertex 20.6740101 -3.022933076 18.65072815 
  endloop
 endfacet
 facet normal 0.000000 -0.187561 0.000000
  outer loop
   vertex 20.6740101 -3.022933076 18.65072815 
   vertex 18.83852965 -3.022933076 18.75197982 
   vertex 18.83852965 -3.022933076 18.65073005 
  endloop
 endfacet
 facet normal 0.028846 0.000000 0.000000
  outer loop
   vertex 20.6740101 -3.022933076 18.75197792 
   vertex 20.6740101 -3.022933076 18.65072815 
   vertex 20.6740101 -2.740651784 18.75197792 
  endloop
 endfacet
 facet normal 0.030856 0.000000 0.000000
  outer loop
   vertex 20.6740101 -2.740651784 18.75197792 
   vertex 20.6740101 -3.022933076 18.65072815 
   vertex 20.6740101 -2.740651784 18.6436692 
  endloop
 endfacet
 facet normal 0.000000 0.200638 0.000000
  outer loop
   vertex 18.83852965 -2.740651784 18.75197792 
   vertex 20.6740101 -2.740651784 18.75197792 
   vertex 18.83852965 -2.740651784 18.6436692 
  endloop
 endfacet
 facet normal 0.000000 0.200637 0.000000
  outer loop
   vertex 18.83852965 -2.740651784 18.6436692 
   vertex 20.6740101 -2.740651784 18.75197792 
   vertex 20.6740101 -2.740651784 18.6436692 
  endloop
 endfacet
 facet normal -0.108236 -0.002309 0.000000
  outer loop
   vertex 16.58522892 -3.022933076 18.65072815 
   vertex 16.57475062 -2.531742121 18.6436692 
   vertex 16.58522892 -3.022933076 18.43239247 
  endloop
 endfacet
 facet normal -0.104738 -0.002234 0.000000
  outer loop
   vertex 16.58522892 -3.022933076 18.43239247 
   vertex 16.57475062 -2.531742121 18.6436692 
   vertex 16.57475062 -2.531742121 18.43239247 
  endloop
 endfacet
 facet normal 0.000000 -0.404458 0.000000
  outer loop
   vertex 18.83852965 -3.022933076 18.65073005 
   vertex 17.0030492 -3.022933076 18.65072815 
   vertex 18.83852965 -3.022933076 18.43239437 
  endloop
 endfacet
 facet normal 0.000000 -0.404458 0.000000
  outer loop
   vertex 18.83852965 -3.022933076 18.43239437 
   vertex 17.0030492 -3.022933076 18.65072815 
   vertex 17.0030492 -3.022933076 18.43239247 
  endloop
 endfacet
 facet normal 0.000000 0.498836 -0.468861
  outer loop
   vertex 16.57475062 -2.220783849 18.65072815 
   vertex 18.83852965 -2.220783849 18.65072815 
   vertex 16.57475062 -2.425999572 18.43239247 
  endloop
 endfacet
 facet normal 0.000000 0.498836 -0.468860
  outer loop
   vertex 16.57475062 -2.425999572 18.43239247 
   vertex 18.83852965 -2.220783849 18.65072815 
   vertex 18.83852965 -2.425999572 18.43239247 
  endloop
 endfacet
 facet normal 0.000000 -0.404457 0.000000
  outer loop
   vertex 20.6740101 -3.022933076 18.65072815 
   vertex 18.83852965 -3.022933076 18.65073005 
   vertex 20.6740101 -3.022933076 18.43239247 
  endloop
 endfacet
 facet normal 0.000000 -0.404459 0.000000
  outer loop
   vertex 20.6740101 -3.022933076 18.43239247 
   vertex 18.83852965 -3.022933076 18.65073005 
   vertex 18.83852965 -3.022933076 18.43239437 
  endloop
 endfacet
 facet normal 0.108236 0.000001 0.000000
  outer loop
   vertex 21.09183037 -3.022933076 18.65072815 
   vertex 21.09183037 -3.022933076 18.43239247 
   vertex 21.09183037 -2.531742121 18.6436692 
  endloop
 endfacet
 facet normal 0.104738 0.000000 0.000000
  outer loop
   vertex 21.09183037 -2.531742121 18.6436692 
   vertex 21.09183037 -3.022933076 18.43239247 
   vertex 21.09183037 -2.531742121 18.43239247 
  endloop
 endfacet
 facet normal 0.000000 0.496527 -0.466691
  outer loop
   vertex 18.83852965 -2.220783849 18.65072815 
   vertex 21.09183037 -2.220783849 18.65072815 
   vertex 18.83852965 -2.425999572 18.43239247 
  endloop
 endfacet
 facet normal 0.000000 0.496528 -0.466689
  outer loop
   vertex 18.83852965 -2.425999572 18.43239247 
   vertex 21.09183037 -2.220783849 18.65072815 
   vertex 21.09183037 -2.425999572 18.43239247 
  endloop
 endfacet
 facet normal 0.000000 0.002977 0.119034
  outer loop
   vertex 17.0030492 -3.022933076 18.65072815 
   vertex 17.0030492 -2.740651784 18.6436692 
   vertex 16.58522892 -3.022933076 18.65072815 
  endloop
 endfacet
 facet normal 0.001490 0.003051 0.210113
  outer loop
   vertex 16.58522892 -3.022933076 18.65072815 
   vertex 17.0030492 -2.740651784 18.6436692 
   vertex 16.57475062 -2.531742121 18.6436692 
  endloop
 endfacet
 facet normal 0.000000 0.000000 -0.119034
  outer loop
   vertex 17.0030492 -3.022933076 18.43239247 
   vertex 16.58522892 -3.022933076 18.43239247 
   vertex 17.0030492 -2.740651784 18.43239247 
  endloop
 endfacet
 facet normal 0.000001 0.000000 -0.210113
  outer loop
   vertex 17.0030492 -2.740651784 18.43239247 
   vertex 16.58522892 -3.022933076 18.43239247 
   vertex 16.57475062 -2.531742121 18.43239247 
  endloop
 endfacet
 facet normal 0.000000 -0.092069 0.000000
  outer loop
   vertex 17.0030492 -3.022933076 18.43239247 
   vertex 17.0030492 -3.022933076 18.65072815 
   vertex 16.58522892 -3.022933076 18.43239247 
  endloop
 endfacet
 facet normal 0.000000 -0.092069 0.000000
  outer loop
   vertex 16.58522892 -3.022933076 18.43239247 
   vertex 17.0030492 -3.022933076 18.65072815 
   vertex 16.58522892 -3.022933076 18.65072815 
  endloop
 endfacet
 facet normal 0.000000 0.000000 0.386996
  outer loop
   vertex 18.83852965 -2.740651784 18.6436692 
   vertex 18.83852965 -2.531742121 18.6436692 
   vertex 17.0030492 -2.740651784 18.6436692 
  endloop
 endfacet
 facet normal 0.000000 0.000000 0.477300
  outer loop
   vertex 17.0030492 -2.740651784 18.6436692 
   vertex 18.83852965 -2.531742121 18.6436692 
   vertex 16.57475062 -2.531742121 18.6436692 
  endloop
 endfacet
 facet normal 0.000000 0.000000 -0.386996
  outer loop
   vertex 18.83852965 -2.740651784 18.43239247 
   vertex 17.0030492 -2.740651784 18.43239247 
   vertex 18.83852965 -2.531742121 18.43239247 
  endloop
 endfacet
 facet normal 0.000000 0.000000 -0.477300
  outer loop
   vertex 18.83852965 -2.531742121 18.43239247 
   vertex 17.0030492 -2.740651784 18.43239247 
   vertex 16.57475062 -2.531742121 18.43239247 
  endloop
 endfacet
 facet normal 0.000000 0.002977 0.119034
  outer loop
   vertex 20.6740101 -3.022933076 18.65072815 
   vertex 21.09183037 -3.022933076 18.65072815 
   vertex 20.6740101 -2.740651784 18.6436692 
  endloop
 endfacet
 facet normal -0.001489 0.002977 0.207128
  outer loop
   vertex 20.6740101 -2.740651784 18.6436692 
   vertex 21.09183037 -3.022933076 18.65072815 
   vertex 21.09183037 -2.531742121 18.6436692 
  endloop
 endfacet
 facet normal 0.000000 -0.092069 0.000000
  outer loop
   vertex 20.6740101 -3.022933076 18.65072815 
   vertex 20.6740101 -3.022933076 18.43239247 
   vertex 21.09183037 -3.022933076 18.65072815 
  endloop
 endfacet
 facet normal 0.000000 -0.092070 0.000000
  outer loop
   vertex 21.09183037 -3.022933076 18.65072815 
   vertex 20.6740101 -3.022933076 18.43239247 
   vertex 21.09183037 -3.022933076 18.43239247 
  endloop
 endfacet
 facet normal 0.000000 0.000000 -0.119034
  outer loop
   vertex 20.6740101 -3.022933076 18.43239247 
   vertex 20.6740101 -2.740651784 18.43239247 
   vertex 21.09183037 -3.022933076 18.43239247 
  endloop
 endfacet
 facet normal 0.000000 0.000000 -0.207128
  outer loop
   vertex 21.09183037 -3.022933076 18.43239247 
   vertex 20.6740101 -2.740651784 18.43239247 
   vertex 21.09183037 -2.531742121 18.43239247 
  endloop
 endfacet
 facet normal 0.000000 0.000000 0.386996
  outer loop
   vertex 18.83852965 -2.740651784 18.6436692 
   vertex 20.6740101 -2.740651784 18.6436692 
   vertex 18.83852965 -2.531742121 18.6436692 
  endloop
 endfacet
 facet normal 0.000000 0.000000 0.475090
  outer loop
   vertex 18.83852965 -2.531742121 18.6436692 
   vertex 20.6740101 -2.740651784 18.6436692 
   vertex 21.09183037 -2.531742121 18.6436692 
  endloop
 endfacet
 facet normal 0.000000 0.000000 -0.386996
  outer loop
   vertex 18.83852965 -2.740651784 18.43239247 
   vertex 18.83852965 -2.531742121 18.43239247 
   vertex 20.6740101 -2.740651784 18.43239247 
  endloop
 endfacet
 facet normal 0.000000 0.000000 -0.475090
  outer loop
   vertex 20.6740101 -2.740651784 18.43239247 
   vertex 18.83852965 -2.531742121 18.43239247 
   vertex 21.09183037 -2.531742121 18.43239247 
  endloop
 endfacet
 facet normal 0.000000 -0.769991 1.482725
  outer loop
   vertex 16.57475062 -2.718011601 18.97546257 
   vertex 18.83852965 -2.718011601 18.97546257 
   vertex 16.57475062 -2.069036624 19.31248086 
  endloop
 endfacet
 facet normal 0.000000 -0.769994 1.482726
  outer loop
   vertex 16.57475062 -2.069036624 19.31248086 
   vertex 18.83852965 -2.718011601 18.97546257 
   vertex 18.83852965 -2.069036624 19.31248086 
  endloop
 endfacet
 facet normal 0.000000 0.000000 -0.241591
  outer loop
   vertex 18.83852965 -2.531742121 18.43239247 
   vertex 16.57475062 -2.531742121 18.43239247 
   vertex 18.83852965 -2.425999572 18.43239247 
  endloop
 endfacet
 facet normal 0.000000 0.000000 -0.241593
  outer loop
   vertex 18.83852965 -2.425999572 18.43239247 
   vertex 16.57475062 -2.531742121 18.43239247 
   vertex 16.57475062 -2.425999572 18.43239247 
  endloop
 endfacet
 facet normal -0.022548 0.000000 0.000000
  outer loop
   vertex 16.57475062 -2.531742121 18.43239247 
   vertex 16.57475062 -2.531742121 18.6436692 
   vertex 16.57475062 -2.425999572 18.43239247 
  endloop
 endfacet
 facet normal -0.067059 -0.000000 0.000000
  outer loop
   vertex 16.57475062 -2.425999572 18.43239247 
   vertex 16.57475062 -2.531742121 18.6436692 
   vertex 16.57475062 -2.220783849 18.65072815 
  endloop
 endfacet
 facet normal 0.000000 -0.766428 1.475863
  outer loop
   vertex 18.83852965 -2.718011601 18.97546257 
   vertex 21.09183037 -2.718011601 18.97546257 
   vertex 18.83852965 -2.069036624 19.31248086 
  endloop
 endfacet
 facet normal 0.000000 -0.766428 1.475863
  outer loop
   vertex 18.83852965 -2.069036624 19.31248086 
   vertex 21.09183037 -2.718011601 18.97546257 
   vertex 21.09183037 -2.069036624 19.31248086 
  endloop
 endfacet
 facet normal 0.022548 0.000000 0.000000
  outer loop
   vertex 21.09183037 -2.531742121 18.43239247 
   vertex 21.09183037 -2.425999572 18.43239247 
   vertex 21.09183037 -2.531742121 18.6436692 
  endloop
 endfacet
 facet normal 0.067059 -0.000001 0.000000
  outer loop
   vertex 21.09183037 -2.531742121 18.6436692 
   vertex 21.09183037 -2.425999572 18.43239247 
   vertex 21.09183037 -2.220783849 18.65072815 
  endloop
 endfacet
 facet normal 0.000000 0.000000 -0.240474
  outer loop
   vertex 21.09183037 -2.531742121 18.43239247 
   vertex 18.83852965 -2.531742121 18.43239247 
   vertex 21.09183037 -2.425999572 18.43239247 
  endloop
 endfacet
 facet normal 0.000000 0.000000 -0.240475
  outer loop
   vertex 21.09183037 -2.425999572 18.43239247 
   vertex 18.83852965 -2.531742121 18.43239247 
   vertex 18.83852965 -2.425999572 18.43239247 
  endloop
 endfacet
 facet normal 0.000000 0.000000 0.181417
  outer loop
   vertex 16.57475062 -2.531742121 18.6436692 
   vertex 18.83852965 -2.531742121 18.6436692 
   vertex 16.57475062 -2.452338203 18.6436692 
  endloop
 endfacet
 facet normal 0.000000 0.000000 0.181416
  outer loop
   vertex 16.57475062 -2.452338203 18.6436692 
   vertex 18.83852965 -2.531742121 18.6436692 
   vertex 18.83852965 -2.452338203 18.6436692 
  endloop
 endfacet
 facet normal 0.000000 0.809684 -0.303454
  outer loop
   vertex 18.83852965 -2.220783849 18.65072815 
   vertex 16.57475062 -2.220783849 18.65072815 
   vertex 18.83852965 -2.087965068 19.00511851 
  endloop
 endfacet
 facet normal 0.000000 0.809682 -0.303453
  outer loop
   vertex 18.83852965 -2.087965068 19.00511851 
   vertex 16.57475062 -2.220783849 18.65072815 
   vertex 16.57475062 -2.087965068 19.00511851 
  endloop
 endfacet
 facet normal -0.081874 -0.000001 0.000000
  outer loop
   vertex 16.57475062 -2.087965068 19.00511851 
   vertex 16.57475062 -2.220783849 18.65072815 
   vertex 16.57475062 -2.452338203 18.6436692 
  endloop
 endfacet
 facet normal 0.000566 0.000000 0.000000
  outer loop
   vertex 16.57475062 -2.220783849 18.65072815 
   vertex 16.57475062 -2.531742121 18.6436692 
   vertex 16.57475062 -2.452338203 18.6436692 
  endloop
 endfacet
 facet normal 0.000000 0.000000 0.180577
  outer loop
   vertex 18.83852965 -2.531742121 18.6436692 
   vertex 21.09183037 -2.531742121 18.6436692 
   vertex 18.83852965 -2.452338203 18.6436692 
  endloop
 endfacet
 facet normal 0.000000 0.000000 0.180575
  outer loop
   vertex 18.83852965 -2.452338203 18.6436692 
   vertex 21.09183037 -2.531742121 18.6436692 
   vertex 21.09183037 -2.452338203 18.6436692 
  endloop
 endfacet
 facet normal 0.081874 0.000000 0.000000
  outer loop
   vertex 21.09183037 -2.087965068 19.00511851 
   vertex 21.09183037 -2.452338203 18.6436692 
   vertex 21.09183037 -2.220783849 18.65072815 
  endloop
 endfacet
 facet normal -0.000565 0.000000 0.000000
  outer loop
   vertex 21.09183037 -2.531742121 18.6436692 
   vertex 21.09183037 -2.220783849 18.65072815 
   vertex 21.09183037 -2.452338203 18.6436692 
  endloop
 endfacet
 facet normal 0.000000 0.805935 -0.302050
  outer loop
   vertex 21.09183037 -2.220783849 18.65072815 
   vertex 18.83852965 -2.220783849 18.65072815 
   vertex 21.09183037 -2.087965068 19.00511851 
  endloop
 endfacet
 facet normal 0.000000 0.805935 -0.302049
  outer loop
   vertex 21.09183037 -2.087965068 19.00511851 
   vertex 18.83852965 -2.220783849 18.65072815 
   vertex 18.83852965 -2.087965068 19.00511851 
  endloop
 endfacet
 facet normal 0.000000 -0.221203 0.028958
  outer loop
   vertex 16.57475062 -2.452338203 18.6436692 
   vertex 18.83852965 -2.452338203 18.6436692 
   vertex 16.57475062 -2.43966347 18.74048767 
  endloop
 endfacet
 facet normal 0.000000 -0.221203 0.028958
  outer loop
   vertex 16.57475062 -2.43966347 18.74048767 
   vertex 18.83852965 -2.452338203 18.6436692 
   vertex 18.83852965 -2.439663232 18.74048767 
  endloop
 endfacet
 facet normal 0.000000 0.398474 -0.043244
  outer loop
   vertex 18.83852965 -2.087965068 19.00511851 
   vertex 16.57475062 -2.087965068 19.00511851 
   vertex 18.83852965 -2.069036861 19.17952656 
  endloop
 endfacet
 facet normal -0.000000 0.398473 -0.043245
  outer loop
   vertex 18.83852965 -2.069036861 19.17952656 
   vertex 16.57475062 -2.087965068 19.00511851 
   vertex 16.57475062 -2.069037098 19.17952656 
  endloop
 endfacet
 facet normal -0.030980 0.000000 0.000000
  outer loop
   vertex 16.57475062 -2.452338203 18.6436692 
   vertex 16.57475062 -2.43966347 18.74048767 
   vertex 16.57475062 -2.087965068 19.00511851 
  endloop
 endfacet
 facet normal -0.056853 0.000000 0.000000
  outer loop
   vertex 16.57475062 -2.087965068 19.00511851 
   vertex 16.57475062 -2.43966347 18.74048767 
   vertex 16.57475062 -2.069037098 19.17952656 
  endloop
 endfacet
 facet normal 0.000000 -0.220179 0.028825
  outer loop
   vertex 18.83852965 -2.452338203 18.6436692 
   vertex 21.09183037 -2.452338203 18.6436692 
   vertex 18.83852965 -2.439663232 18.74048767 
  endloop
 endfacet
 facet normal 0.000000 -0.220179 0.028824
  outer loop
   vertex 18.83852965 -2.439663232 18.74048767 
   vertex 21.09183037 -2.452338203 18.6436692 
   vertex 21.09183037 -2.439662995 18.74048767 
  endloop
 endfacet
 facet normal 0.030979 -0.000000 0.000000
  outer loop
   vertex 21.09183037 -2.452338203 18.6436692 
   vertex 21.09183037 -2.087965068 19.00511851 
   vertex 21.09183037 -2.439662995 18.74048767 
  endloop
 endfacet
 facet normal 0.056853 0.000002 0.000000
  outer loop
   vertex 21.09183037 -2.439662995 18.74048767 
   vertex 21.09183037 -2.087965068 19.00511851 
   vertex 21.09183037 -2.069036624 19.17952656 
  endloop
 endfacet
 facet normal 0.000000 0.396629 -0.043046
  outer loop
   vertex 21.09183037 -2.087965068 19.00511851 
   vertex 18.83852965 -2.087965068 19.00511851 
   vertex 21.09183037 -2.069036624 19.17952656 
  endloop
 endfacet
 facet normal -0.000000 0.396629 -0.043046
  outer loop
   vertex 21.09183037 -2.069036624 19.17952656 
   vertex 18.83852965 -2.087965068 19.00511851 
   vertex 18.83852965 -2.069036861 19.17952656 
  endloop
 endfacet
 facet normal 0.000001 -0.536851 -0.635947
  outer loop
   vertex 16.57475062 -2.43966347 18.74048767 
   vertex 18.83852965 -2.439663232 18.74048767 
   vertex 16.57475062 -2.718011601 18.97546257 
  endloop
 endfacet
 facet normal 0.000000 -0.536853 -0.635948
  outer loop
   vertex 16.57475062 -2.718011601 18.97546257 
   vertex 18.83852965 -2.439663232 18.74048767 
   vertex 18.83852965 -2.718011601 18.97546257 
  endloop
 endfacet
 facet normal -0.000000 0.303763 -0.000001
  outer loop
   vertex 18.83852965 -2.069036861 19.17952656 
   vertex 16.57475062 -2.069037098 19.17952656 
   vertex 18.83852965 -2.069036624 19.31248086 
  endloop
 endfacet
 facet normal 0.000000 0.303763 -0.000001
  outer loop
   vertex 18.83852965 -2.069036624 19.31248086 
   vertex 16.57475062 -2.069037098 19.17952656 
   vertex 16.57475062 -2.069036624 19.31248086 
  endloop
 endfacet
 facet normal -0.211229 0.000000 0.000000
  outer loop
   vertex 16.57475062 -2.43966347 18.74048767 
   vertex 16.57475062 -2.718011601 18.97546257 
   vertex 16.57475062 -2.069037098 19.17952656 
  endloop
 endfacet
 facet normal -0.087083 -0.000000 0.000000
  outer loop
   vertex 16.57475062 -2.069037098 19.17952656 
   vertex 16.57475062 -2.718011601 18.97546257 
   vertex 16.57475062 -2.069036624 19.31248086 
  endloop
 endfacet
 facet normal 0.000000 -0.534367 -0.633003
  outer loop
   vertex 18.83852965 -2.439663232 18.74048767 
   vertex 21.09183037 -2.439662995 18.74048767 
   vertex 18.83852965 -2.718011601 18.97546257 
  endloop
 endfacet
 facet normal 0.000000 -0.534367 -0.633005
  outer loop
   vertex 18.83852965 -2.718011601 18.97546257 
   vertex 21.09183037 -2.439662995 18.74048767 
   vertex 21.09183037 -2.718011601 18.97546257 
  endloop
 endfacet
 facet normal 0.211230 -0.000001 0.000000
  outer loop
   vertex 21.09183037 -2.439662995 18.74048767 
   vertex 21.09183037 -2.069036624 19.17952656 
   vertex 21.09183037 -2.718011601 18.97546257 
  endloop
 endfacet
 facet normal 0.087082 0.000000 0.000000
  outer loop
   vertex 21.09183037 -2.718011601 18.97546257 
   vertex 21.09183037 -2.069036624 19.17952656 
   vertex 21.09183037 -2.069036624 19.31248086 
  endloop
 endfacet
 facet normal -0.000000 0.302357 0.000000
  outer loop
   vertex 21.09183037 -2.069036624 19.17952656 
   vertex 18.83852965 -2.069036861 19.17952656 
   vertex 21.09183037 -2.069036624 19.31248086 
  endloop
 endfacet
 facet normal 0.000000 0.302358 0.000000
  outer loop
   vertex 21.09183037 -2.069036624 19.31248086 
   vertex 18.83852965 -2.069036861 19.17952656 
   vertex 18.83852965 -2.069036624 19.31248086 
  endloop
 endfacet
endsolid
