solid
 facet normal 0.112805 0.000000 0.000000
  outer loop
   vertex 22.78442192 2.803003788 12.46702099 
   vertex 22.78442192 2.803003788 13.17000389 
   vertex 22.78442192 2.642537355 12.46702099 
  endloop
 endfacet
 facet normal 0.113522 0.000000 0.000000
  outer loop
   vertex 22.78442192 2.642537355 12.46702099 
   vertex 22.78442192 2.803003788 13.17000389 
   vertex 22.78442192 2.642537355 13.17446613 
  endloop
 endfacet
 facet normal 0.542753 0.000000 0.000000
  outer loop
   vertex 22.78442192 2.642537355 9.084676743 
   vertex 22.78442192 2.803003788 9.084676743 
   vertex 22.78442192 2.642537355 12.46702099 
  endloop
 endfacet
 facet normal 0.542753 0.000000 0.000000
  outer loop
   vertex 22.78442192 2.642537355 12.46702099 
   vertex 22.78442192 2.803003788 9.084676743 
   vertex 22.78442192 2.803003788 12.46702099 
  endloop
 endfacet
 facet normal -0.113522 0.000000 0.000000
  outer loop
   vertex 22.84440804 2.642537355 13.17446613 
   vertex 22.84440804 2.803003788 13.17000389 
   vertex 22.84440804 2.642537355 12.46702099 
  endloop
 endfacet
 facet normal -0.112805 0.000000 0.000000
  outer loop
   vertex 22.84440804 2.642537355 12.46702099 
   vertex 22.84440804 2.803003788 13.17000389 
   vertex 22.84440804 2.803003788 12.46702099 
  endloop
 endfacet
 facet normal -0.542753 0.000000 0.000000
  outer loop
   vertex 22.99299812 2.642537355 9.084676743 
   vertex 22.99299812 2.642537355 12.46702099 
   vertex 22.99299812 2.803003788 9.084676743 
  endloop
 endfacet
 facet normal -0.542753 0.000000 0.000000
  outer loop
   vertex 22.99299812 2.803003788 9.084676743 
   vertex 22.99299812 2.642537355 12.46702099 
   vertex 22.99299812 2.803003788 12.46702099 
  endloop
 endfacet
 facet normal 0.000000 -0.042171 0.000000
  outer loop
   vertex 22.84440804 2.803003788 12.46702099 
   vertex 22.84440804 2.803003788 13.17000389 
   vertex 22.78442192 2.803003788 12.46702099 
  endloop
 endfacet
 facet normal 0.000000 -0.042168 0.000000
  outer loop
   vertex 22.78442192 2.803003788 12.46702099 
   vertex 22.84440804 2.803003788 13.17000389 
   vertex 22.78442192 2.803003788 13.17000389 
  endloop
 endfacet
 facet normal 0.000000 -0.000268 -0.009626
  outer loop
   vertex 22.84440804 2.803003788 13.17000389 
   vertex 22.84440804 2.642537355 13.17446613 
   vertex 22.78442192 2.803003788 13.17000389 
  endloop
 endfacet
 facet normal 0.000000 -0.000268 -0.009626
  outer loop
   vertex 22.78442192 2.803003788 13.17000389 
   vertex 22.84440804 2.642537355 13.17446613 
   vertex 22.78442192 2.642537355 13.17446613 
  endloop
 endfacet
 facet normal 0.000000 0.042435 0.000000
  outer loop
   vertex 22.84440804 2.642537355 13.17446613 
   vertex 22.84440804 2.642537355 12.46702099 
   vertex 22.78442192 2.642537355 13.17446613 
  endloop
 endfacet
 facet normal 0.000000 0.042439 0.000000
  outer loop
   vertex 22.78442192 2.642537355 13.17446613 
   vertex 22.84440804 2.642537355 12.46702099 
   vertex 22.78442192 2.642537355 12.46702099 
  endloop
 endfacet
 facet normal 0.000000 0.000000 0.030592
  outer loop
   vertex 22.97506905 2.642537355 8.833493233 
   vertex 22.97506905 2.803003788 8.833493233 
   vertex 22.78442192 2.642537355 8.833493233 
  endloop
 endfacet
 facet normal 0.000000 0.000000 0.030592
  outer loop
   vertex 22.78442192 2.642537355 8.833493233 
   vertex 22.97506905 2.803003788 8.833493233 
   vertex 22.78442192 2.803003788 8.833493233 
  endloop
 endfacet
 facet normal 0.000000 -0.644836 0.000000
  outer loop
   vertex 22.97506905 2.803003788 9.084676743 
   vertex 22.84440804 2.803003788 12.46702099 
   vertex 22.78442192 2.803003788 9.084676743 
  endloop
 endfacet
 facet normal 0.000000 -0.202896 0.000000
  outer loop
   vertex 22.78442192 2.803003788 9.084676743 
   vertex 22.84440804 2.803003788 12.46702099 
   vertex 22.78442192 2.803003788 12.46702099 
  endloop
 endfacet
 facet normal 0.000000 0.202896 0.000000
  outer loop
   vertex 22.84440804 2.642537355 12.46702099 
   vertex 22.97506905 2.642537355 9.084676743 
   vertex 22.78442192 2.642537355 12.46702099 
  endloop
 endfacet
 facet normal 0.000000 0.644836 0.000000
  outer loop
   vertex 22.78442192 2.642537355 12.46702099 
   vertex 22.97506905 2.642537355 9.084676743 
   vertex 22.78442192 2.642537355 9.084676743 
  endloop
 endfacet
 facet normal -0.040307 0.000000 0.000000
  outer loop
   vertex 22.99299812 2.642537355 9.084676743 
   vertex 22.99299812 2.803003788 9.084676743 
   vertex 22.99299812 2.642537355 8.833493233 
  endloop
 endfacet
 facet normal -0.040307 0.000000 0.000000
  outer loop
   vertex 22.99299812 2.642537355 8.833493233 
   vertex 22.99299812 2.803003788 9.084676743 
   vertex 22.99299812 2.803003788 8.833493233 
  endloop
 endfacet
 facet normal 0.000000 -0.047887 0.000000
  outer loop
   vertex 22.97506905 2.803003788 9.084676743 
   vertex 22.78442192 2.803003788 9.084676743 
   vertex 22.97506905 2.803003788 8.833493233 
  endloop
 endfacet
 facet normal 0.000000 -0.047888 0.000000
  outer loop
   vertex 22.97506905 2.803003788 8.833493233 
   vertex 22.78442192 2.803003788 9.084676743 
   vertex 22.78442192 2.803003788 8.833493233 
  endloop
 endfacet
 facet normal 0.040307 0.000000 0.000000
  outer loop
   vertex 21.63414383 2.803003788 9.084676743 
   vertex 21.63414383 2.642537355 9.084676743 
   vertex 21.63414383 2.803003788 8.833493233 
  endloop
 endfacet
 facet normal 0.040307 0.000000 0.000000
  outer loop
   vertex 21.63414383 2.803003788 8.833493233 
   vertex 21.63414383 2.642537355 9.084676743 
   vertex 21.63414383 2.642537355 8.833493233 
  endloop
 endfacet
 facet normal 0.000000 0.047888 0.000000
  outer loop
   vertex 22.78442192 2.642537355 9.084676743 
   vertex 22.97506905 2.642537355 9.084676743 
   vertex 22.78442192 2.642537355 8.833493233 
  endloop
 endfacet
 facet normal 0.000000 0.047887 0.000000
  outer loop
   vertex 22.78442192 2.642537355 8.833493233 
   vertex 22.97506905 2.642537355 9.084676743 
   vertex 22.97506905 2.642537355 8.833493233 
  endloop
 endfacet
 facet normal 0.000000 0.000000 -0.184581
  outer loop
   vertex 22.78442192 2.803003788 9.084676743 
   vertex 22.78442192 2.642537355 9.084676743 
   vertex 21.63414383 2.803003788 9.084676743 
  endloop
 endfacet
 facet normal 0.000000 0.000000 -0.184581
  outer loop
   vertex 21.63414383 2.803003788 9.084676743 
   vertex 22.78442192 2.642537355 9.084676743 
   vertex 21.63414383 2.642537355 9.084676743 
  endloop
 endfacet
 facet normal 0.000000 0.288932 0.000000
  outer loop
   vertex 22.78442192 2.642537355 9.084676743 
   vertex 22.78442192 2.642537355 8.833493233 
   vertex 21.63414383 2.642537355 9.084676743 
  endloop
 endfacet
 facet normal 0.000000 0.288930 0.000000
  outer loop
   vertex 21.63414383 2.642537355 9.084676743 
   vertex 22.78442192 2.642537355 8.833493233 
   vertex 21.63414383 2.642537355 8.833493233 
  endloop
 endfacet
 facet normal 0.000000 0.000000 0.184581
  outer loop
   vertex 22.78442192 2.642537355 8.833493233 
   vertex 22.78442192 2.803003788 8.833493233 
   vertex 21.63414383 2.642537355 8.833493233 
  endloop
 endfacet
 facet normal 0.000000 0.000000 0.184581
  outer loop
   vertex 21.63414383 2.642537355 8.833493233 
   vertex 22.78442192 2.803003788 8.833493233 
   vertex 21.63414383 2.803003788 8.833493233 
  endloop
 endfacet
 facet normal 0.000000 -0.288932 0.000000
  outer loop
   vertex 22.78442192 2.803003788 8.833493233 
   vertex 22.78442192 2.803003788 9.084676743 
   vertex 21.63414383 2.803003788 8.833493233 
  endloop
 endfacet
 facet normal 0.000000 -0.288930 0.000000
  outer loop
   vertex 21.63414383 2.803003788 8.833493233 
   vertex 22.78442192 2.803003788 9.084676743 
   vertex 21.63414383 2.803003788 9.084676743 
  endloop
 endfacet
 facet normal 0.000000 0.060638 -0.000000
  outer loop
   vertex 22.97506905 2.642537355 9.084676743 
   vertex 22.84440804 2.642537355 12.46702099 
   vertex 22.99299812 2.642537355 9.084676743 
  endloop
 endfacet
 facet normal 0.000000 0.502579 0.000000
  outer loop
   vertex 22.99299812 2.642537355 9.084676743 
   vertex 22.84440804 2.642537355 12.46702099 
   vertex 22.99299812 2.642537355 12.46702099 
  endloop
 endfacet
 facet normal 0.000000 0.000000 -0.023844
  outer loop
   vertex 22.84440804 2.642537355 12.46702099 
   vertex 22.84440804 2.803003788 12.46702099 
   vertex 22.99299812 2.642537355 12.46702099 
  endloop
 endfacet
 facet normal 0.000000 0.000000 -0.023844
  outer loop
   vertex 22.99299812 2.642537355 12.46702099 
   vertex 22.84440804 2.803003788 12.46702099 
   vertex 22.99299812 2.803003788 12.46702099 
  endloop
 endfacet
 facet normal 0.000000 -0.502579 0.000000
  outer loop
   vertex 22.84440804 2.803003788 12.46702099 
   vertex 22.97506905 2.803003788 9.084676743 
   vertex 22.99299812 2.803003788 12.46702099 
  endloop
 endfacet
 facet normal 0.000000 -0.060638 0.000000
  outer loop
   vertex 22.99299812 2.803003788 12.46702099 
   vertex 22.97506905 2.803003788 9.084676743 
   vertex 22.99299812 2.803003788 9.084676743 
  endloop
 endfacet
 facet normal 0.000000 -0.004503 0.000000
  outer loop
   vertex 22.97506905 2.803003788 9.084676743 
   vertex 22.97506905 2.803003788 8.833493233 
   vertex 22.99299812 2.803003788 9.084676743 
  endloop
 endfacet
 facet normal 0.000000 -0.004504 0.000000
  outer loop
   vertex 22.99299812 2.803003788 9.084676743 
   vertex 22.97506905 2.803003788 8.833493233 
   vertex 22.99299812 2.803003788 8.833493233 
  endloop
 endfacet
 facet normal 0.000000 0.000000 0.002877
  outer loop
   vertex 22.97506905 2.803003788 8.833493233 
   vertex 22.97506905 2.642537355 8.833493233 
   vertex 22.99299812 2.803003788 8.833493233 
  endloop
 endfacet
 facet normal 0.000000 0.000000 0.002877
  outer loop
   vertex 22.99299812 2.803003788 8.833493233 
   vertex 22.97506905 2.642537355 8.833493233 
   vertex 22.99299812 2.642537355 8.833493233 
  endloop
 endfacet
 facet normal 0.000000 0.004503 0.000000
  outer loop
   vertex 22.97506905 2.642537355 8.833493233 
   vertex 22.97506905 2.642537355 9.084676743 
   vertex 22.99299812 2.642537355 8.833493233 
  endloop
 endfacet
 facet normal 0.000000 0.004504 0.000000
  outer loop
   vertex 22.99299812 2.642537355 8.833493233 
   vertex 22.97506905 2.642537355 9.084676743 
   vertex 22.99299812 2.642537355 9.084676743 
  endloop
 endfacet
endsolid
