solid
 facet normal 0.000000 0.000000 -0.020322
  outer loop
   vertex 22.85538292 2.642537355 13.17160416 
   vertex 22.85538292 2.803003788 13.17160416 
   vertex 22.98202324 2.642537355 13.17160416 
  endloop
 endfacet
 facet normal 0.000000 0.000000 -0.020321
  outer loop
   vertex 22.98202324 2.642537355 13.17160416 
   vertex 22.85538292 2.803003788 13.17160416 
   vertex 22.98202324 2.803003788 13.17160416 
  endloop
 endfacet
 facet normal 0.000000 0.000000 0.020322
  outer loop
   vertex 22.85538292 2.642537355 12.46702099 
   vertex 22.98202324 2.642537355 12.46702099 
   vertex 22.85538292 2.803003788 12.46702099 
  endloop
 endfacet
 facet normal 0.000000 0.000000 0.020321
  outer loop
   vertex 22.98202324 2.642537355 12.46702099 
   vertex 22.98202324 2.803003788 12.46702099 
   vertex 22.85538292 2.803003788 12.46702099 
  endloop
 endfacet
 facet normal 0.113062 0.000000 0.000000
  outer loop
   vertex 22.85538292 2.642537355 12.46702099 
   vertex 22.85538292 2.803003788 12.46702099 
   vertex 22.85538292 2.642537355 13.17160416 
  endloop
 endfacet
 facet normal 0.113061 0.000000 0.000000
  outer loop
   vertex 22.85538292 2.642537355 13.17160416 
   vertex 22.85538292 2.803003788 12.46702099 
   vertex 22.85538292 2.803003788 13.17160416 
  endloop
 endfacet
 facet normal 0.000000 0.089230 0.000000
  outer loop
   vertex 22.98202324 2.642537355 12.46702099 
   vertex 22.85538292 2.642537355 12.46702099 
   vertex 22.98202324 2.642537355 13.17160416 
  endloop
 endfacet
 facet normal 0.000000 0.089230 0.000000
  outer loop
   vertex 22.98202324 2.642537355 13.17160416 
   vertex 22.85538292 2.642537355 12.46702099 
   vertex 22.85538292 2.642537355 13.17160416 
  endloop
 endfacet
 facet normal 0.000000 -0.089230 0.000000
  outer loop
   vertex 22.85538292 2.803003788 12.46702099 
   vertex 22.98202324 2.803003788 12.46702099 
   vertex 22.85538292 2.803003788 13.17160416 
  endloop
 endfacet
 facet normal 0.000000 -0.089230 0.000000
  outer loop
   vertex 22.85538292 2.803003788 13.17160416 
   vertex 22.98202324 2.803003788 12.46702099 
   vertex 22.98202324 2.803003788 13.17160416 
  endloop
 endfacet
 facet normal -0.113062 0.000000 0.000000
  outer loop
   vertex 22.98202324 2.803003788 12.46702099 
   vertex 22.98202324 2.642537355 12.46702099 
   vertex 22.98202324 2.803003788 13.17160416 
  endloop
 endfacet
 facet normal -0.113061 0.000000 0.000000
  outer loop
   vertex 22.98202324 2.803003788 13.17160416 
   vertex 22.98202324 2.642537355 12.46702099 
   vertex 22.98202324 2.642537355 13.17160416 
  endloop
 endfacet
endsolid
